<svg width="606" height="683" viewBox="0 0 606 683" fill="none" xmlns="http://www.w3.org/2000/svg">
<path d="M218.956 105.721C304.112 105.721 401.74 149.368 465.659 235.686L601.896 127.161C539.84 49.7392 444.991 0.244629 338.586 0.244629C224.039 0.244629 130.084 55.5443 63.8718 140.777C105.389 118.808 157.332 105.721 218.956 105.721Z" fill="#416567"/>
<path d="M243.21 492.901C308.69 578.231 398.672 624.593 502.33 619.511C516.848 618.801 525.011 619.428 538.506 615.961C561.887 598.043 587.508 574.18 605.547 550.832L475.901 449.729C443.969 490.799 394.331 517.223 338.555 517.223C304.878 517.223 269.898 509.608 243.21 492.901Z" fill="white"/>
<path d="M346.341 165.603C346.61 165.812 341.301 165.603 338.587 165.603C242.219 165.603 165 243.624 165 340.677C165 350.366 167.93 370.707 168.07 371.208C170.493 385.354 172.873 405.207 178.408 418.015C217.018 542.147 338.027 649.919 498.377 642.137C450.775 667.949 396.366 682.554 338.587 682.554C151.646 682.554 0.126221 529.84 0.126221 341.359C0.126221 282.774 14.8161 227.613 40.6527 179.456C90.9366 147.95 147.629 129.321 212.979 130.936C212.969 130.936 275.971 128.96 346.341 165.603Z" fill="#0798B6"/>
</svg>
