<svg width="207" height="215" viewBox="0 0 207 215" fill="none" xmlns="http://www.w3.org/2000/svg">
<path d="M104.074 200.35C116.939 200.35 127.368 190.312 127.368 177.93C127.368 165.547 116.939 155.509 104.074 155.509C91.2092 155.509 80.7803 165.547 80.7803 177.93C80.7803 190.312 91.2092 200.35 104.074 200.35Z" stroke="#1099B6" stroke-width="0.459" stroke-miterlimit="10"/>
<path d="M42.3105 167.377C55.1753 167.377 65.6042 157.339 65.6042 144.957C65.6042 132.574 55.1753 122.536 42.3105 122.536C29.4457 122.536 19.0167 132.574 19.0167 144.957C19.0167 157.339 29.4457 167.377 42.3105 167.377Z" stroke="#1099B6" stroke-width="0.459" stroke-miterlimit="10"/>
<path d="M165.194 167.535C178.059 167.535 188.488 157.497 188.488 145.115C188.488 132.732 178.059 122.695 165.194 122.695C152.329 122.695 141.9 132.732 141.9 145.115C141.9 157.497 152.329 167.535 165.194 167.535Z" stroke="#1099B6" stroke-width="0.459" stroke-miterlimit="10"/>
<path d="M104.095 58.0068C116.959 58.0068 127.388 47.9689 127.388 35.5865C127.388 23.2041 116.959 13.1663 104.095 13.1663C91.2298 13.1663 80.8008 23.2041 80.8008 35.5865C80.8008 47.9689 91.2298 58.0068 104.095 58.0068Z" stroke="#1099B6" stroke-width="0.459" stroke-miterlimit="10"/>
<path d="M166.814 92.2301C179.679 92.2301 190.108 82.1922 190.108 69.8099C190.108 57.4275 179.679 47.3896 166.814 47.3896C153.949 47.3896 143.521 57.4275 143.521 69.8099C143.521 82.1922 153.949 92.2301 166.814 92.2301Z" stroke="#1099B6" stroke-width="0.459" stroke-miterlimit="10"/>
<path d="M40.9958 92.7397C53.8606 92.7397 64.2896 82.7018 64.2896 70.3194C64.2896 57.9371 53.8606 47.8992 40.9958 47.8992C28.131 47.8992 17.702 57.9371 17.702 70.3194C17.702 82.7018 28.131 92.7397 40.9958 92.7397Z" stroke="#1099B6" stroke-width="0.459" stroke-miterlimit="10"/>
<path d="M17.7634 69.2255C17.7634 61.1147 22.2038 54.0079 28.8568 50.0723L93.7294 15.9054L94.6725 15.4201C97.479 13.9527 100.69 13.1212 104.097 13.1212C108.092 13.1212 111.81 14.2633 114.927 16.2285L178.545 49.7512C185.508 53.6094 190.202 60.8857 190.202 69.2266V144.308C190.202 152.42 185.762 159.527 179.108 163.462L114.235 197.629L113.291 198.114C110.485 199.581 107.276 200.413 103.866 200.413C99.8727 200.413 96.1522 199.27 93.0364 197.304L29.4183 163.783C22.456 159.925 17.7612 152.648 17.7612 144.307V69.2255H17.7634Z" stroke="#0095B6" stroke-width="1.7008" stroke-miterlimit="10"/>
<path d="M3.03418 46.3213L204.981 170.722" stroke="#1099B6" stroke-width="0.5669" stroke-miterlimit="10" stroke-dasharray="8 8"/>
<path d="M206.073 44.9297L0.542725 171.723" stroke="#1099B6" stroke-width="0.5669" stroke-miterlimit="10" stroke-dasharray="8 8"/>
<path d="M99.667 0.868408V214.694" stroke="#1099B6" stroke-width="0.5669" stroke-miterlimit="10" stroke-dasharray="8 8"/>
<path d="M185.348 159.046V57.3613L185.024 57.5514V158.847L185.348 159.046Z" fill="#1099B6"/>
<path d="M187.907 156.553V56.6838L187.583 56.8739V156.354L187.907 156.553Z" fill="#1099B6"/>
<path d="M182.387 59.1212V157.344L182.711 157.53V58.9312L182.387 59.1212Z" fill="#1099B6"/>
<path d="M179.749 60.6809V155.794L180.073 155.979V60.4919L179.749 60.6809Z" fill="#1099B6"/>
<path d="M177.114 62.2079V154.149L177.437 154.333V62.0178L177.114 62.2079Z" fill="#1099B6"/>
<path d="M174.476 63.8346V152.651L174.799 152.836V63.6445L174.476 63.8346Z" fill="#1099B6"/>
<path d="M171.838 65.3386V151.19L172.161 151.374V65.1475L171.838 65.3386Z" fill="#1099B6"/>
<path d="M169.203 66.8903V149.49L169.524 149.677V66.7002L169.203 66.8903Z" fill="#1099B6"/>
<path d="M166.562 68.4671V147.975L166.888 148.162V68.277L166.562 68.4671Z" fill="#1099B6"/>
<path d="M163.928 69.9711V146.422L164.25 146.61V69.7799L163.928 69.9711Z" fill="#1099B6"/>
<path d="M161.291 71.5468V144.815L161.613 145V71.3567L161.291 71.5468Z" fill="#1099B6"/>
<path d="M158.651 73.0754V143.336L158.979 143.524V72.8865L158.651 73.0754Z" fill="#1099B6"/>
<path d="M156.016 74.6233V141.767L156.339 141.951V74.4343L156.016 74.6233Z" fill="#1099B6"/>
<path d="M153.38 76.2223V140.141L153.701 140.326V76.0311L153.38 76.2223Z" fill="#1099B6"/>
<path d="M150.742 77.7561V138.679L151.066 138.864V77.5649L150.742 77.7561Z" fill="#1099B6"/>
<path d="M148.105 79.3748V137.127L148.426 137.312V79.1847L148.105 79.3748Z" fill="#1099B6"/>
<path d="M145.468 80.8506V135.52L145.791 135.705V80.6616L145.468 80.8506Z" fill="#1099B6"/>
<path d="M142.829 82.4505V134.046L143.154 134.233V82.2593L142.829 82.4505Z" fill="#1099B6"/>
<path d="M140.193 84.0253V132.457L140.517 132.644V83.8352L140.193 84.0253Z" fill="#1099B6"/>
<path d="M137.557 85.529V130.916L137.88 131.101V85.339L137.557 85.529Z" fill="#1099B6"/>
<path d="M134.919 87.0768V129.308L135.243 129.494V86.8878L134.919 87.0768Z" fill="#1099B6"/>
<path d="M132.282 88.6836V127.838L132.606 128.022V88.4946L132.282 88.6836Z" fill="#1099B6"/>
<path d="M129.646 90.2035V126.283L129.967 126.467V90.0134L129.646 90.2035Z" fill="#1099B6"/>
<path d="M127.007 91.7094V124.64L127.331 124.822V91.5193L127.007 91.7094Z" fill="#1099B6"/>
<path d="M124.372 93.3351V123.137L124.694 123.324V93.145L124.372 93.3351Z" fill="#1099B6"/>
<path d="M121.735 94.8359V121.641L122.057 121.827V94.6459L121.735 94.8359Z" fill="#1099B6"/>
<path d="M119.096 96.4098V120.013L119.422 120.196V96.2197L119.096 96.4098Z" fill="#1099B6"/>
<path d="M116.46 97.9835V118.554L116.782 118.738V97.7935L116.46 97.9835Z" fill="#1099B6"/>
<path d="M113.823 99.5384V116.982L114.145 117.166V99.3484L113.823 99.5384Z" fill="#1099B6"/>
<path d="M111.184 101.087V115.336L111.51 115.52V100.898L111.184 101.087Z" fill="#1099B6"/>
<path d="M108.548 102.736V113.841L108.87 114.025V102.547L108.548 102.736Z" fill="#1099B6"/>
<path d="M105.914 104.265V112.284L106.234 112.468V104.075L105.914 104.265Z" fill="#1099B6"/>
<path d="M103.274 105.741V110.851L103.598 111.036V105.551L103.274 105.741Z" fill="#1099B6"/>
</svg>
