<svg width="425" height="465" viewBox="0 0 425 465" fill="none" xmlns="http://www.w3.org/2000/svg">
<path d="M253.927 54.632V131.367C253.927 137.077 257.049 142.343 262.105 145.198L330.184 183.569C335.247 186.412 341.477 186.412 346.538 183.563L414.615 145.196C419.679 142.342 422.793 137.075 422.793 131.365V54.6308C422.793 48.9271 419.679 43.6528 414.615 40.8022L346.538 2.4349C341.477 -0.41946 335.247 -0.41946 330.184 2.4349L262.105 40.8022C257.049 43.654 253.927 48.9283 253.927 54.632Z" stroke="white" stroke-width="0.25" stroke-miterlimit="10" stroke-dasharray="1.53 1.53"/>
<path d="M168.286 54.632V131.367C168.286 137.077 171.409 142.343 176.466 145.198L244.546 183.569C249.607 186.412 255.84 186.412 260.899 183.563L328.978 145.196C334.039 142.342 337.154 137.075 337.154 131.365V54.6308C337.154 48.9271 334.039 43.6528 328.978 40.8022L260.899 2.4349C255.84 -0.41946 249.607 -0.41946 244.546 2.4349L176.466 40.8022C171.409 43.654 168.286 48.9283 168.286 54.632Z" stroke="white" stroke-width="0.25" stroke-miterlimit="10" stroke-dasharray="1.53 1.53"/>
<path d="M85.0601 54.632V131.367C85.0601 137.077 88.1828 142.343 93.2394 145.198L161.319 183.569C166.381 186.412 172.611 186.412 177.671 183.563L245.751 145.196C250.813 142.342 253.928 137.075 253.928 131.365V54.6308C253.928 48.9271 250.813 43.6528 245.751 40.8022L177.671 2.4349C172.611 -0.41946 166.381 -0.41946 161.319 2.4349L93.2394 40.8022C88.1815 43.654 85.0601 48.9283 85.0601 54.632Z" stroke="white" stroke-width="0.25" stroke-miterlimit="10" stroke-dasharray="1.53 1.53"/>
<path d="M169.361 147.545V224.281C169.361 229.99 172.484 235.258 177.541 238.111L245.619 276.483C250.682 279.326 256.913 279.326 261.974 276.477L330.051 238.111C335.114 235.258 338.229 229.99 338.229 224.281V147.545C338.229 141.841 335.114 136.568 330.051 133.718L261.974 95.3505C256.913 92.4961 250.682 92.4961 245.619 95.3505L177.541 133.718C172.484 136.568 169.361 141.841 169.361 147.545Z" stroke="white" stroke-width="0.25" stroke-miterlimit="10" stroke-dasharray="1.53 1.53"/>
<path d="M83.7225 147.545V224.281C83.7225 229.99 86.8453 235.258 91.9007 238.111L159.982 276.483C165.043 279.326 171.275 279.326 176.334 276.477L244.413 238.111C249.475 235.258 252.589 229.99 252.589 224.281V147.545C252.589 141.841 249.475 136.568 244.413 133.718L176.334 95.3505C171.275 92.4961 165.043 92.4961 159.982 95.3505L91.9007 133.718C86.844 136.568 83.7225 141.841 83.7225 147.545Z" stroke="white" stroke-width="0.25" stroke-miterlimit="10" stroke-dasharray="1.53 1.53"/>
<path d="M0.49353 147.545V224.281C0.49353 229.99 3.61626 235.258 8.67292 238.111L76.7538 276.483C81.8156 279.326 88.0456 279.326 93.1062 276.477L161.184 238.111C166.246 235.258 169.361 229.99 169.361 224.281V147.545C169.361 141.841 166.246 136.568 161.184 133.718L93.1062 95.3505C88.0456 92.4961 81.8156 92.4961 76.7538 95.3505L8.67292 133.718C3.61626 136.568 0.49353 141.841 0.49353 147.545Z" stroke="white" stroke-width="0.25" stroke-miterlimit="10" stroke-dasharray="1.53 1.53"/>
<path d="M169.361 332.932V409.666C169.361 415.375 172.484 420.642 177.541 423.497L245.619 461.868C250.682 464.712 256.913 464.712 261.974 461.862L330.051 423.496C335.114 420.641 338.229 415.374 338.229 409.665V332.93C338.229 327.226 335.114 321.952 330.051 319.102L261.974 280.735C256.913 277.88 250.682 277.88 245.619 280.735L177.541 319.102C172.484 321.954 169.361 327.227 169.361 332.932Z" stroke="white" stroke-width="0.25" stroke-miterlimit="10" stroke-dasharray="1.53 1.53"/>
<path d="M83.7225 332.932V409.666C83.7225 415.375 86.8453 420.642 91.9007 423.497L159.982 461.868C165.043 464.712 171.275 464.712 176.334 461.862L244.413 423.496C249.475 420.641 252.589 415.374 252.589 409.665V332.93C252.589 327.226 249.475 321.952 244.413 319.102L176.334 280.735C171.275 277.88 165.043 277.88 159.982 280.735L91.9007 319.102C86.844 321.954 83.7225 327.227 83.7225 332.932Z" stroke="white" stroke-width="0.25" stroke-miterlimit="10" stroke-dasharray="1.53 1.53"/>
<path d="M0.49353 332.932V409.666C0.49353 415.375 3.61626 420.642 8.67292 423.497L76.7538 461.868C81.8156 464.712 88.0456 464.712 93.1062 461.862L161.184 423.496C166.246 420.641 169.361 415.374 169.361 409.665V332.93C169.361 327.226 166.246 321.952 161.184 319.102L93.1062 280.735C88.0456 277.88 81.8156 277.88 76.7538 280.735L8.67292 319.102C3.61626 321.954 0.49353 327.227 0.49353 332.932Z" stroke="white" stroke-width="0.25" stroke-miterlimit="10" stroke-dasharray="1.53 1.53"/>
<path d="M255.132 240.249V316.982C255.132 322.692 258.255 327.959 263.312 330.815L331.391 369.185C336.453 372.028 342.686 372.028 347.745 369.18L415.823 330.813C420.885 327.958 424 322.691 424 316.981V240.248C424 234.543 420.885 229.269 415.823 226.419L347.745 188.052C342.686 185.198 336.453 185.198 331.391 188.052L263.312 226.419C258.254 229.271 255.132 234.545 255.132 240.249Z" stroke="white" stroke-width="0.25" stroke-miterlimit="10" stroke-dasharray="1.53 1.53"/>
<path d="M169.495 240.249V316.982C169.495 322.692 172.616 327.959 177.672 330.815L245.752 369.185C250.814 372.028 257.046 372.028 262.106 369.18L330.184 330.813C335.246 327.958 338.36 322.691 338.36 316.981V240.248C338.36 234.543 335.246 229.269 330.184 226.419L262.106 188.052C257.046 185.198 250.814 185.198 245.752 188.052L177.672 226.419C172.615 229.271 169.495 234.545 169.495 240.249Z" stroke="white" stroke-miterlimit="10" stroke-dasharray="1.53 1.53"/>
<path d="M86.2644 240.249V316.982C86.2644 322.692 89.3871 327.959 94.4438 330.815L162.525 369.185C167.586 372.028 173.818 372.028 178.878 369.18L246.955 330.813C252.017 327.958 255.132 322.691 255.132 316.981V240.248C255.132 234.543 252.017 229.269 246.955 226.419L178.878 188.052C173.818 185.198 167.586 185.198 162.525 188.052L94.4438 226.419C89.3871 229.271 86.2644 234.545 86.2644 240.249Z" stroke="white" stroke-width="0.25" stroke-miterlimit="10" stroke-dasharray="1.53 1.53"/>
</svg>
