<svg width="194" height="207" viewBox="0 0 194 207" fill="none" xmlns="http://www.w3.org/2000/svg">
<path d="M97.587 191.883C107.748 191.883 115.985 183.646 115.985 173.485C115.985 163.324 107.748 155.087 97.587 155.087C87.426 155.087 79.189 163.324 79.189 173.485C79.189 183.646 87.426 191.883 97.587 191.883Z" stroke="#1099B6" stroke-width="0.459" stroke-miterlimit="10"/>
<path d="M36.3646 158.39C46.5255 158.39 54.7626 150.153 54.7626 139.992C54.7626 129.831 46.5255 121.594 36.3646 121.594C26.2036 121.594 17.9666 129.831 17.9666 139.992C17.9666 150.153 26.2036 158.39 36.3646 158.39Z" stroke="#1099B6" stroke-width="0.459" stroke-miterlimit="10"/>
<path d="M158.54 158.548C168.701 158.548 176.938 150.311 176.938 140.15C176.938 129.989 168.701 121.752 158.54 121.752C148.379 121.752 140.142 129.989 140.142 140.15C140.142 150.311 148.379 158.548 158.54 158.548Z" stroke="#1099B6" stroke-width="0.459" stroke-miterlimit="10"/>
<path d="M97.527 49.6324C107.688 49.6324 115.925 41.3953 115.925 31.2344C115.925 21.0735 107.688 12.8364 97.527 12.8364C87.3661 12.8364 79.129 21.0735 79.129 31.2344C79.129 41.3953 87.3661 49.6324 97.527 49.6324Z" stroke="#1099B6" stroke-width="0.459" stroke-miterlimit="10"/>
<path d="M158.606 83.4139C168.767 83.4139 177.004 75.1768 177.004 65.0159C177.004 54.855 168.767 46.6179 158.606 46.6179C148.445 46.6179 140.208 54.855 140.208 65.0159C140.208 75.1768 148.445 83.4139 158.606 83.4139Z" stroke="#1099B6" stroke-width="0.459" stroke-miterlimit="10"/>
<path d="M36.3171 83.2828C46.478 83.2828 54.7151 75.0457 54.7151 64.8848C54.7151 54.7238 46.478 46.4868 36.3171 46.4868C26.1561 46.4868 17.9191 54.7238 17.9191 64.8848C17.9191 75.0457 26.1561 83.2828 36.3171 83.2828Z" stroke="#1099B6" stroke-width="0.459" stroke-miterlimit="10"/>
<path d="M17.419 66.514C17.419 58.759 21.539 51.964 27.712 48.201L87.904 15.533L88.779 15.069C91.383 13.666 94.362 12.871 97.524 12.871C101.23 12.871 104.68 13.963 107.572 15.842L166.6 47.894C173.061 51.583 177.416 58.54 177.416 66.515V138.303C177.416 146.059 173.296 152.854 167.122 156.616L106.93 189.284L106.054 189.748C103.451 191.151 100.473 191.946 97.309 191.946C93.604 191.946 90.152 190.853 87.261 188.974L28.233 156.923C21.773 153.234 17.417 146.277 17.417 138.302V66.514H17.419Z" stroke="#0095B6" stroke-width="1.7" stroke-miterlimit="10"/>
<path d="M3 46.031L191.884 162.291" stroke="#1099B6" stroke-width="0.5669" stroke-miterlimit="10" stroke-dasharray="8 8"/>
<path d="M192.953 44.641L0.561035 163.291" stroke="#1099B6" stroke-width="0.5669" stroke-miterlimit="10" stroke-dasharray="8 8"/>
<path d="M97.598 0.632996V206.21" stroke="#1099B6" stroke-width="0.5669" stroke-miterlimit="10" stroke-dasharray="8 8"/>
<path d="M172.634 57.18V150.446L172.919 150.629V57.005L172.634 57.18Z" fill="#1099B6"/>
<path d="M174.884 56.556V148.151L175.169 148.334V56.381L174.884 56.556Z" fill="#1099B6"/>
<path d="M170.599 149.233V58.45L170.314 58.625V149.062L170.599 149.233Z" fill="#1099B6"/>
<path d="M168.279 147.805V59.887L167.994 60.061V147.635L168.279 147.805Z" fill="#1099B6"/>
<path d="M165.961 146.29V61.292L165.677 61.467V146.12L165.961 146.29Z" fill="#1099B6"/>
<path d="M163.641 144.911V62.79L163.357 62.965V144.741L163.641 144.911Z" fill="#1099B6"/>
<path d="M161.321 143.566V64.174L161.037 64.35V143.396L161.321 143.566Z" fill="#1099B6"/>
<path d="M159.002 142.002V65.603L158.72 65.778V141.83L159.002 142.002Z" fill="#1099B6"/>
<path d="M156.684 140.608V67.055L156.397 67.23V140.436L156.684 140.608Z" fill="#1099B6"/>
<path d="M154.363 139.179V68.439L154.08 68.615V139.006L154.363 139.179Z" fill="#1099B6"/>
<path d="M152.044 137.697V69.891L151.761 70.066V137.526L152.044 137.697Z" fill="#1099B6"/>
<path d="M149.727 136.337V71.299L149.439 71.473V136.164L149.727 136.337Z" fill="#1099B6"/>
<path d="M147.406 134.889V72.724L147.122 72.898V134.719L147.406 134.889Z" fill="#1099B6"/>
<path d="M145.086 133.393V74.195L144.803 74.371V133.223L145.086 133.393Z" fill="#1099B6"/>
<path d="M142.768 132.047V75.607L142.483 75.783V131.877L142.768 132.047Z" fill="#1099B6"/>
<path d="M140.447 130.618V77.098L140.164 77.273V130.447L140.447 130.618Z" fill="#1099B6"/>
<path d="M138.129 129.138V78.458L137.845 78.632V128.968L138.129 129.138Z" fill="#1099B6"/>
<path d="M135.81 127.783V79.929L135.524 80.105V127.611L135.81 127.783Z" fill="#1099B6"/>
<path d="M133.49 126.32V81.38L133.205 81.555V126.148L133.49 126.32Z" fill="#1099B6"/>
<path d="M131.171 124.9V82.765L130.887 82.94V124.729L131.171 124.9Z" fill="#1099B6"/>
<path d="M128.852 123.42V84.191L128.567 84.365V123.249L128.852 123.42Z" fill="#1099B6"/>
<path d="M126.533 122.064V85.67L126.248 85.844V121.895L126.533 122.064Z" fill="#1099B6"/>
<path d="M124.212 120.633V87.069L123.93 87.244V120.464L124.212 120.633Z" fill="#1099B6"/>
<path d="M121.894 119.118V88.455L121.609 88.63V118.95L121.894 119.118Z" fill="#1099B6"/>
<path d="M119.574 117.739V89.952L119.291 90.127V117.567L119.574 117.739Z" fill="#1099B6"/>
<path d="M117.255 116.361V91.334L116.972 91.509V116.189L117.255 116.361Z" fill="#1099B6"/>
<path d="M114.937 114.859V92.783L114.651 92.958V114.69L114.937 114.859Z" fill="#1099B6"/>
<path d="M112.616 113.516V94.232L112.333 94.407V113.347L112.616 113.516Z" fill="#1099B6"/>
<path d="M110.297 112.069V95.664L110.014 95.839V111.9L110.297 112.069Z" fill="#1099B6"/>
<path d="M107.979 110.554V97.091L107.693 97.265V110.384L107.979 110.554Z" fill="#1099B6"/>
<path d="M105.658 109.177V98.609L105.375 98.783V109.008L105.658 109.177Z" fill="#1099B6"/>
<path d="M103.339 107.743V100.015L103.057 100.19V107.574L103.339 107.743Z" fill="#1099B6"/>
<path d="M101.021 106.425V101.374L100.736 101.549V106.254L101.021 106.425Z" fill="#1099B6"/>
</svg>