<svg width="456" height="91" viewBox="0 0 456 91" fill="none" xmlns="http://www.w3.org/2000/svg">
<path d="M28.3919 27.224C21.1385 27.224 11.6753 29.2584 0 33.3258C0.584793 37.2318 0.878468 40.0812 0.878468 41.8751V89.6017H15.8856V45.2916C15.8856 44.8059 15.8009 43.9508 15.6368 42.7264C20.5537 40.9387 24.7601 40.0398 28.2637 40.0398C36.5201 40.0398 40.6457 43.7843 40.6457 51.2707V89.6017H55.6502V48.9534C55.6502 34.4651 46.5641 27.224 28.3919 27.224Z" fill="#2c4344"/>
<path d="M402.54 89.6054H387.539V28.5673H402.54V89.6054Z" fill="#2c4344"/>
<path d="M203.346 89.6005H188.339V0H203.346V89.6005Z" fill="#2c4344"/>
<path d="M120.861 76.2927V28.5661H105.849V72.8812C105.849 73.3645 105.932 74.2245 106.098 75.4439C101.179 77.2254 96.9705 78.123 93.4707 78.123C85.2156 78.123 81.0926 74.3823 81.0926 66.8933V28.5661H66.0854V69.2144C66.0854 83.7065 75.169 90.94 93.345 90.94C100.598 90.94 110.062 88.9094 121.728 84.8432C121.147 80.9335 120.861 78.0842 120.861 76.2927Z" fill="#2c4344"/>
<path d="M269.451 56.3948C269.451 47.689 266.989 40.6946 262.068 35.4003C256.9 29.9495 249.896 27.2203 241.068 27.2203C231.888 27.2203 224.68 30.3513 219.428 36.6196C214.511 42.3997 212.046 49.9249 212.046 59.2041C212.046 68.7224 214.986 76.3966 220.868 82.2167C226.742 88.0318 234.475 90.9413 244.062 90.9413C251.145 90.9413 258.318 89.4365 265.57 86.4219L260.815 75.0758C255.987 77.1928 250.696 78.2457 244.941 78.2457C234.769 78.2457 229.181 73.6499 228.179 64.4571H268.574C269.156 60.3033 269.451 57.6204 269.451 56.3948ZM228.179 52.9796C228.349 49.1488 229.6 45.9213 231.937 43.2723C234.27 40.632 237.357 39.3075 241.188 39.3075C245.195 39.3075 248.356 40.6107 250.698 43.216C252.775 45.7411 253.862 48.991 253.945 52.9796H228.179Z" fill="#2c4344"/>
<path d="M327.603 78.4961V47.1232C327.603 40.3704 325.39 35.2801 320.969 31.8587C316.887 28.7702 311.299 27.2228 304.211 27.2228C295.628 27.2228 287.419 28.973 279.585 32.4746L284.712 43.579C290.542 41.1391 296.337 39.9172 302.09 39.9172C309.089 39.9172 312.592 41.7938 312.592 45.5333C312.592 48.2199 309.253 50.2943 302.59 51.7615C292.754 53.876 286.498 55.5899 283.839 56.8894C277.162 60.1418 273.832 65.311 273.832 72.393C273.832 78.8178 276.998 83.7065 283.335 87.0366C288.337 89.6406 294.502 90.9451 301.844 90.9451C308.921 90.9451 317.807 89.3576 328.478 86.1815C327.894 82.6086 327.603 80.0434 327.603 78.4961ZM301.965 78.7352C294.215 78.7352 290.337 76.2589 290.337 71.2951C290.337 68.77 291.881 66.8183 294.961 65.4299C296.296 64.8703 299.504 64.0127 304.587 62.8722C308.676 61.9771 311.341 60.9205 312.592 59.6949V74.7103C312.592 75.1985 312.672 75.9735 312.847 77.0276C309.174 78.1693 305.546 78.7352 301.965 78.7352Z" fill="#2c4344"/>
<path d="M368.185 27.224C360.185 27.224 350.683 29.4649 339.676 33.9368C340.426 38.172 340.802 41.2204 340.802 43.092V89.6055H355.81V42.7302C355.81 42.4811 355.769 42.0779 355.683 41.5096C359.183 40.448 362.936 39.9184 366.937 39.9184C369.768 39.9184 372.524 40.329 375.193 41.1415L379.692 28.5686C376.192 27.6735 372.354 27.224 368.185 27.224Z" fill="#2c4344"/>
<path d="M448.033 57.8595C446.364 56.7278 441.78 54.6972 434.275 51.7627C429.356 49.806 426.896 47.5325 426.896 44.9235C426.896 41.2642 429.478 39.4327 434.648 39.4327C438.736 39.4327 443.322 40.3716 448.412 42.2369L452.662 30.8884C447.407 28.4434 441.406 27.224 434.647 27.224C428.806 27.224 423.725 28.5673 419.391 31.2489C414.142 34.5127 411.517 39.0233 411.517 44.8059C411.517 50.4971 413.892 55.0578 418.638 58.4755C419.557 59.129 423.895 61.2422 431.645 64.8239C436.401 67.0173 438.773 69.5424 438.773 72.3942C438.773 76.8623 435.603 79.1045 429.272 79.1045C425.105 79.1045 420.106 77.8851 414.268 75.4451L409.89 86.9151C417.146 89.6068 424.023 90.9475 430.523 90.9475C437.102 90.9475 442.702 89.6068 447.275 86.9151C452.703 83.5876 455.409 78.819 455.409 72.6371C455.41 66.2924 452.945 61.3649 448.033 57.8595Z" fill="#2c4344"/>
<path d="M146.889 37.9216C154.796 37.9216 163.861 41.8464 169.796 49.6082L182.446 39.8495C176.684 32.8877 167.877 28.4371 157.997 28.4371C147.361 28.4371 138.637 33.4097 132.489 41.0739C136.344 39.0984 141.167 37.9216 146.889 37.9216Z" fill="#2c4344"/>
<path d="M149.141 72.7372C155.221 80.4102 163.576 84.5791 173.201 84.1221C174.549 84.0583 175.307 84.1146 176.56 83.8029C178.731 82.1917 181.11 80.0459 182.785 77.9464L170.747 68.8551C167.782 72.5482 163.173 74.9243 157.994 74.9243C154.867 74.9243 151.619 74.2395 149.141 72.7372Z" fill="#2c4344"/>
<path d="M158.717 43.3061C158.742 43.3249 158.249 43.3061 157.997 43.3061C149.049 43.3061 141.879 50.3218 141.879 59.0489C141.879 59.9202 142.151 61.7492 142.164 61.7943C142.389 63.0663 142.61 64.8515 143.124 66.0032C146.709 77.1653 157.945 86.8563 172.834 86.1565C168.414 88.4775 163.362 89.7908 157.997 89.7908C140.639 89.7908 126.57 76.0586 126.57 59.1102C126.57 53.8422 127.934 48.8821 130.333 44.5518C135.002 41.7187 140.266 40.0436 146.334 40.1888C146.333 40.1888 152.183 40.0111 158.717 43.3061Z" fill="#2c4344"/>
</svg>
