<svg width="8852" height="4744" viewBox="0 0 8852 4744" fill="none" xmlns="http://www.w3.org/2000/svg">
<path d="M8723.79 480.302C8719.3 431.348 8583.92 470.448 8520.87 416.527C8457.67 362.29 8349.47 607.932 8326.85 710.808C8304.25 813.841 8137.48 926.494 8137.48 926.494C8137.48 926.494 7654.81 931.381 7614.08 931.381C7585.81 931.381 7475.01 1035.36 7409.99 1098.98C7411.88 1101.66 7413.91 1104.5 7415.71 1107.89C7464.5 1203.67 7287.15 1262.48 7118 1269.88C7065.96 1272.01 7026.82 1278.01 6996.6 1282.5C7002.55 1304.96 7007.19 1329.87 7005.23 1348.24C7003.92 1360 6985.74 1374.58 6960 1389.4C6934.2 1446.55 6726.49 1556.6 6610.47 1623.14C6481.97 1696.84 6306.07 1659.94 6306.07 1549.43C6306.07 1439.14 6400.8 1461.14 6421.09 1512.61C6428.63 1531.84 6451.53 1517.74 6482.47 1493.78C6450.45 1459.63 6450.8 1405.4 6457.76 1363.77C6418.99 1345.33 6479.36 1180.57 6400.8 1152.11C6319.7 1122.55 6224.91 1277.14 6238.46 1181.36C6252.08 1085.66 6373.76 1004.77 6299.33 879.745C6225.05 754.639 6089.52 754.639 6062.42 850.184C6035.32 945.965 5940.66 901.661 5906.89 975.37C5873.11 1049.08 5839.12 1210.92 5866.24 1328.61C5893.26 1446.31 5859.42 1505.12 5758.03 1571.42C5656.5 1637.64 5603.29 1470.2 5642.87 1254.9C5669.97 1107.65 5744.26 967.88 5676.78 967.88C5609.1 967.88 5764.76 791.139 5906.82 754.402C6048.86 717.431 6224.9 732.329 6224.9 688.025C6224.9 679.196 6231.35 673.205 6242.08 669.184C6213.17 644.352 6180.91 620.939 6155.19 603.438C6152.51 612.74 6146.99 621.491 6136.85 629.137C6081.12 671.392 6096.19 562.839 5994.8 562.839C5893.34 562.839 5791.8 665.952 5710.64 621.806C5629.39 577.502 5669.91 518.615 5595.62 518.615C5521.26 518.615 5649.76 364.103 5541.48 430.323C5433.2 496.699 5270.94 658.62 5196.43 584.913C5122 511.283 5054.24 606.985 5000.17 548.098C4946.03 489.132 5189.54 327.289 5304.56 334.698C5332.97 336.354 5358.7 323.031 5382.91 301.748C5322.46 277.467 5197.59 224.57 5164.69 268.401C5124.03 322.48 5065.47 287.873 5033.8 243.805C5002.13 199.502 4961.62 258.547 4907.48 189.806C4853.34 120.985 4799.28 170.097 4767.68 184.838C4736.08 199.659 4695.49 160.243 4636.79 135.884C4578.08 111.288 4623.17 47.5135 4573.66 8.25494C4524.02 -31.0036 4521.12 82.5139 4521.12 82.5139L316.275 107.11C320.913 114.994 325.842 122.246 331.205 128.474C381.864 187.361 341.35 231.507 358.164 301.432C374.979 371.356 361.644 470.606 310.912 470.606C260.181 470.606 253.44 408.093 290.692 385.941C327.943 364.025 307.579 282.906 270.473 282.906C248.73 282.906 240.032 255.079 240.974 222.6C171.98 243.49 92.5487 234.031 0 221.811C1.52195 226.147 2.97129 230.246 3.26118 234.898C6.59497 279.122 26.961 378.293 81.0263 455.707C135.164 532.884 97.8401 580.892 148.789 610.297C199.593 639.701 196.042 672.89 148.789 665.321C101.464 658.07 135.164 705.999 118.351 816.365C101.464 926.73 104.725 1154.79 94.7235 1224.96C84.5047 1294.88 10.1465 1408.94 54.0655 1482.65C97.912 1556.29 128.424 1659.16 104.725 1751.16C81.0985 1843.23 84.5048 1898.27 121.612 1968.27C158.863 2038.27 128.424 2159.66 168.936 2185.37C209.595 2211.23 246.772 2262.55 283.952 2328.77C321.203 2395.22 354.904 2354.62 361.716 2420.84C368.456 2487.14 368.457 2498.02 422.594 2523.95C476.804 2549.72 442.887 2615.87 442.887 2652.76C442.887 2689.58 513.837 2755.96 601.821 2840.55C689.732 2925.05 615.446 2995.05 679.513 2995.05C743.87 2995.05 804.82 3035.66 868.959 3079.64C933.171 3123.86 953.535 3097.92 997.455 3109.05C1041.3 3120.16 1122.69 3223.11 1139.5 3293.04C1147.4 3325.84 1157.84 3360.45 1173.86 3397.73L1524.62 3347.67C1524.62 3347.67 1633.05 3430.29 1694.5 3445.98C1756.03 3461.51 2088.61 3595.29 2088.61 3595.29L2522.23 3591.27L2572.75 3520.63H2811.33C2811.33 3520.63 2963.16 3681.85 2984.89 3689.8C3006.64 3697.69 3082.6 3772.26 3082.6 3819.56C3082.6 3866.78 3100.63 3906.12 3136.81 3925.75C3172.97 3945.45 3295.81 4031.93 3313.78 4023.97C3331.82 4016.17 3368.07 3866.78 3433.08 3870.8C3498.08 3874.74 3675.21 3929.61 3704.2 4039.82C3732.89 4149.87 3819.79 4240.45 3848.64 4264.01C3877.42 4287.59 3863.14 4354.36 3884.81 4389.92C3906.54 4425.31 3902.85 4492.16 3928.22 4492.16C3953.66 4492.16 4083.74 4578.8 4141.43 4574.78C4158.61 4573.59 4181.51 4584.95 4204.92 4600.48C4212.02 4469.06 4087.51 4446.99 4160.85 4386.53C4245.43 4316.36 4157.52 4257.63 4198.18 4228.15C4238.91 4198.74 4309.79 4169.34 4309.79 4125.04C4309.79 4080.81 4347.11 4080.81 4401.18 4088.22C4455.32 4095.56 4556.7 3992.44 4550.11 3951.93C4543.3 3911.32 4560.25 3904.23 4624.4 3918.73C4688.75 3933.55 4678.54 3837.85 4719.19 3852.51C4759.85 3867.33 4793.55 3893.11 4796.96 3859.92C4800.43 3826.65 4840.88 3834.23 4871.32 3878.21C4901.76 3922.52 4989.81 3933.39 4996.55 3881.99C5003.44 3830.6 5054.16 3881.99 5098.01 3933.39C5141.93 3984.88 5162.37 3970.21 5226.51 3974C5290.79 3977.7 5290.79 3959.17 5294.19 3915.11C5297.68 3870.96 5365.23 4010.74 5429.58 4018.21C5493.94 4025.7 5443.2 3974 5395.73 3933.63C5348.33 3893.12 5405.88 3874.75 5365.29 3841.63C5324.63 3808.45 5415.95 3764.38 5497.13 3768.08C5578.37 3771.63 5574.89 3793.7 5605.39 3742.23C5635.83 3690.67 5666.27 3742.23 5666.27 3786.45C5666.27 3830.76 5798.11 3760.75 5869.28 3760.75C5940.23 3760.75 6004.51 3826.89 6011.32 3871.11C6018.14 3915.34 6065.54 3937.33 6116.2 3889.4C6166.85 3841.63 6210.99 3786.21 6258.24 3837.85C6305.49 3889.48 6353.04 3959.33 6410.58 4021.85C6468.05 4084.36 6383.48 4161.69 6413.92 4209.55C6444.36 4257.4 6410.58 4323.7 6478.27 4375.33C6546.04 4426.81 6485.08 4533.63 6539.15 4548.29C6593.29 4563.11 6637.27 4655.03 6643.95 4691.6C6650.76 4728.42 6752.23 4776.27 6759.03 4713.6C6765.77 4651.08 6819.98 4577.29 6826.8 4518.57C6833.61 4459.76 6786.14 4249.91 6742.22 4183.69C6698.22 4117.39 6752.36 4102.8 6698.23 4025.47C6644.09 3948.14 6610.32 3811.91 6613.65 3701.63C6617.13 3591.34 6735.55 3410.9 6793.02 3355.55C6850.5 3300.53 6914.92 3329.94 6928.41 3271.05C6942.04 3212.15 7012.98 3138.53 7053.64 3138.53C7094.37 3138.53 7138.22 3149.64 7144.96 3101.79C7151.84 3054.03 7219.38 2995.05 7307.37 2980.31C7395.35 2965.49 7344.62 2913.94 7320.99 2870.03C7297.29 2825.72 7341.22 2781.65 7358.17 2811.05C7374.98 2840.55 7429.12 2844.17 7463.05 2818.54C7496.89 2792.85 7574.72 2722.85 7500.36 2719.14C7425.94 2715.44 7408.91 2682.32 7452.97 2663.88C7496.89 2645.67 7459.71 2557.14 7398.83 2549.97C7337.88 2542.4 7358.1 2509.45 7395.43 2469.01C7432.74 2428.57 7341.29 2362.35 7297.29 2329.32C7253.37 2296.13 7324.33 2277.91 7358.17 2270.51C7392.09 2263.02 7365.06 2093.84 7381.87 2053.4C7398.68 2012.88 7456.16 2012.88 7432.61 2053.4C7408.91 2093.84 7374.98 2160.14 7418.98 2215.32C7462.9 2270.51 7476.46 2329.32 7459.56 2414.06C7442.75 2498.8 7476.46 2476.65 7527.33 2366.29C7578.13 2256.01 7584.87 2160.38 7551.03 2149.18C7517.18 2138.14 7520.59 2027.86 7557.84 2079.18C7595.02 2130.73 7608.49 2138.14 7666.04 2071.77C7723.51 2005.47 7784.54 1891.64 7747.21 1865.78C7709.89 1840.08 7764.03 1814.3 7831.79 1818.17C7899.55 1821.79 8044.79 1773.86 8055.08 1751.79C8088.12 1679.97 7821.57 1784.9 7821.57 1744.3C7821.57 1703.79 7990.73 1663.41 8068.56 1659.79C8146.4 1656.17 8109.29 1542.09 8142.91 1589.71C8176.76 1637.49 8227.49 1630.31 8271.34 1600.9C8315.33 1571.5 8281.63 1486.92 8230.76 1472.17C8180.02 1457.35 8268.01 1420.62 8250.98 1387.5C8234.08 1354.4 8284.82 1221.72 8349.1 1207.22C8413.39 1192.39 8382.95 1148.25 8437.09 1148.25C8491.23 1148.25 8501.37 1078.32 8548.7 1027C8596.09 975.448 8663.71 1107.73 8738.15 1034.34C8768.58 1004.14 8809.75 970.561 8852 941.315C8678.85 692.44 8727.99 525.63 8723.79 480.302Z" fill="#B3B3B3"/>
<path d="M3286 2644.5V3468.5H2816H2798.5V3486V3503.5H2573.5H2564.7L2559.45 3510.56L2512.7 3573.5H2373V2541.5H3297.5V2627H3286V2644.5Z" fill="#B3B3B3" stroke="#A0A0A0" stroke-width="35"/>
<path d="M3643.86 2823C3641.8 2816.26 3639.46 2809.32 3636.84 2802.21C3634.4 2795.09 3631.97 2787.97 3629.53 2780.85H3553.66C3551.23 2787.97 3548.7 2795.09 3546.08 2802.21C3543.64 2809.32 3541.39 2816.26 3539.33 2823H3493.81C3501.12 2802.02 3508.05 2782.63 3514.6 2764.83C3521.16 2747.04 3527.53 2730.27 3533.71 2714.53C3540.08 2698.8 3546.26 2683.9 3552.26 2669.85C3558.44 2655.62 3564.81 2641.75 3571.37 2628.27H3613.24C3619.6 2641.75 3625.88 2655.62 3632.06 2669.85C3638.24 2683.9 3644.43 2698.8 3650.61 2714.53C3656.98 2730.27 3663.44 2747.04 3670 2764.83C3676.55 2782.63 3683.49 2802.02 3690.79 2823H3643.86ZM3591.32 2672.38C3590.38 2675.19 3588.98 2679.03 3587.1 2683.9C3585.23 2688.78 3583.07 2694.4 3580.64 2700.76C3578.2 2707.13 3575.49 2714.16 3572.49 2721.84C3569.68 2729.52 3566.78 2737.58 3563.78 2746.01H3619.14C3616.14 2737.58 3613.24 2729.52 3610.43 2721.84C3607.62 2714.16 3604.9 2707.13 3602.28 2700.76C3599.84 2694.4 3597.69 2688.78 3595.81 2683.9C3593.94 2679.03 3592.44 2675.19 3591.32 2672.38ZM3772.2 2825.81C3760.02 2825.62 3750.09 2824.31 3742.41 2821.88C3734.92 2819.44 3728.92 2816.07 3724.43 2811.76C3720.12 2807.26 3717.12 2801.92 3715.44 2795.74C3713.94 2789.37 3713.19 2782.25 3713.19 2774.39V2611.69L3755.06 2604.94V2765.96C3755.06 2769.7 3755.34 2773.08 3755.9 2776.07C3756.46 2779.07 3757.49 2781.6 3758.99 2783.66C3760.68 2785.72 3763.02 2787.41 3766.02 2788.72C3769.01 2790.03 3773.04 2790.87 3778.1 2791.25L3772.2 2825.81ZM3896.79 2747.97C3896.79 2721 3886.87 2707.51 3867.01 2707.51C3862.7 2707.51 3858.39 2708.07 3854.08 2709.19C3849.96 2710.32 3846.59 2711.72 3843.97 2713.41V2789.56C3846.03 2789.94 3848.65 2790.31 3851.83 2790.68C3855.02 2790.87 3858.49 2790.97 3862.23 2790.97C3873.66 2790.97 3882.28 2787.03 3888.08 2779.16C3893.89 2771.3 3896.79 2760.9 3896.79 2747.97ZM3939.51 2749.1C3939.51 2760.9 3937.73 2771.58 3934.17 2781.13C3930.8 2790.68 3925.83 2798.83 3919.27 2805.58C3912.72 2812.32 3904.66 2817.57 3895.11 2821.31C3885.55 2824.87 3874.69 2826.65 3862.51 2826.65C3857.45 2826.65 3852.12 2826.37 3846.5 2825.81C3841.06 2825.44 3835.63 2824.87 3830.2 2824.12C3824.95 2823.37 3819.89 2822.53 3815.02 2821.59C3810.15 2820.47 3805.84 2819.35 3802.1 2818.22V2611.69L3843.97 2604.94V2678.57C3848.65 2676.51 3853.52 2674.91 3858.58 2673.79C3863.64 2672.66 3869.07 2672.1 3874.88 2672.1C3885.37 2672.1 3894.64 2673.98 3902.7 2677.72C3910.75 2681.28 3917.5 2686.43 3922.93 2693.18C3928.36 2699.92 3932.48 2708.07 3935.29 2717.62C3938.1 2726.99 3939.51 2737.48 3939.51 2749.1ZM4097.85 2817.94C4090.74 2820 4081.56 2821.88 4070.32 2823.56C4059.08 2825.44 4047.27 2826.37 4034.91 2826.37C4022.36 2826.37 4011.87 2824.69 4003.44 2821.31C3995.2 2817.94 3988.64 2813.26 3983.77 2807.26C3978.9 2801.08 3975.43 2793.78 3973.37 2785.35C3971.31 2776.92 3970.28 2767.64 3970.28 2757.53V2675.19H4012.15V2752.47C4012.15 2765.96 4013.93 2775.7 4017.49 2781.69C4021.05 2787.69 4027.7 2790.68 4037.44 2790.68C4040.44 2790.68 4043.62 2790.59 4046.99 2790.4C4050.37 2790.03 4053.36 2789.65 4055.99 2789.28V2675.19H4097.85V2817.94ZM4172.84 2750.22C4172.84 2777.01 4182.77 2790.4 4202.63 2790.4C4206.94 2790.4 4211.15 2789.84 4215.28 2788.72C4219.58 2787.59 4223.05 2786.19 4225.67 2784.5V2708.91C4223.61 2708.54 4220.99 2708.26 4217.8 2708.07C4214.62 2707.7 4211.15 2707.51 4207.41 2707.51C4195.98 2707.51 4187.36 2711.44 4181.56 2719.31C4175.75 2726.99 4172.84 2737.29 4172.84 2750.22ZM4130.13 2749.1C4130.13 2737.67 4131.82 2727.27 4135.19 2717.91C4138.75 2708.35 4143.81 2700.2 4150.36 2693.46C4156.92 2686.53 4164.98 2681.19 4174.53 2677.44C4184.08 2673.7 4194.95 2671.82 4207.13 2671.82C4212.18 2671.82 4217.43 2672.1 4222.86 2672.66C4228.48 2673.04 4233.91 2673.6 4239.16 2674.35C4244.59 2675.1 4249.74 2676.04 4254.62 2677.16C4259.49 2678.1 4263.79 2679.13 4267.54 2680.25V2874.99H4225.67V2819.35C4220.99 2821.41 4216.12 2823 4211.06 2824.12C4206 2825.25 4200.57 2825.81 4194.76 2825.81C4173.78 2825.81 4157.76 2818.97 4146.71 2805.3C4135.66 2791.43 4130.13 2772.7 4130.13 2749.1ZM4432.91 2817.94C4425.8 2820 4416.62 2821.88 4405.38 2823.56C4394.14 2825.44 4382.33 2826.37 4369.97 2826.37C4357.42 2826.37 4346.93 2824.69 4338.5 2821.31C4330.26 2817.94 4323.7 2813.26 4318.83 2807.26C4313.96 2801.08 4310.49 2793.78 4308.43 2785.35C4306.37 2776.92 4305.34 2767.64 4305.34 2757.53V2675.19H4347.21V2752.47C4347.21 2765.96 4348.99 2775.7 4352.55 2781.69C4356.11 2787.69 4362.76 2790.68 4372.5 2790.68C4375.5 2790.68 4378.68 2790.59 4382.05 2790.4C4385.43 2790.03 4388.42 2789.65 4391.05 2789.28V2675.19H4432.91V2817.94ZM4465.19 2750.22C4465.19 2737.11 4467.16 2725.68 4471.09 2715.94C4475.21 2706.01 4480.55 2697.77 4487.11 2691.21C4493.67 2684.65 4501.16 2679.69 4509.59 2676.32C4518.21 2672.95 4527.01 2671.26 4536 2671.26C4556.99 2671.26 4573.56 2677.72 4585.74 2690.65C4597.92 2703.39 4604.01 2722.21 4604.01 2747.13C4604.01 2749.57 4603.91 2752.28 4603.72 2755.28C4603.54 2758.09 4603.35 2760.62 4603.16 2762.87H4508.18C4509.12 2771.48 4513.15 2778.32 4520.27 2783.38C4527.39 2788.44 4536.94 2790.97 4548.93 2790.97C4556.61 2790.97 4564.1 2790.31 4571.41 2789C4578.9 2787.5 4584.99 2785.72 4589.67 2783.66L4595.29 2817.66C4593.05 2818.78 4590.05 2819.91 4586.3 2821.03C4582.56 2822.16 4578.34 2823.09 4573.66 2823.84C4569.16 2824.78 4564.29 2825.53 4559.05 2826.09C4553.8 2826.65 4548.56 2826.93 4543.31 2826.93C4530.01 2826.93 4518.39 2824.97 4508.47 2821.03C4498.72 2817.1 4490.58 2811.76 4484.02 2805.02C4477.65 2798.08 4472.87 2789.94 4469.69 2780.57C4466.69 2771.2 4465.19 2761.09 4465.19 2750.22ZM4563.54 2734.2C4563.35 2730.64 4562.7 2727.18 4561.57 2723.81C4560.64 2720.43 4559.05 2717.44 4556.8 2714.81C4554.74 2712.19 4552.02 2710.04 4548.65 2708.35C4545.46 2706.67 4541.44 2705.82 4536.57 2705.82C4531.88 2705.82 4527.85 2706.67 4524.48 2708.35C4521.11 2709.85 4518.3 2711.91 4516.05 2714.53C4513.8 2717.16 4512.03 2720.25 4510.71 2723.81C4509.59 2727.18 4508.75 2730.64 4508.18 2734.2H4563.54ZM4725.39 2712.29C4721.65 2711.35 4717.24 2710.41 4712.19 2709.48C4707.13 2708.35 4701.7 2707.79 4695.89 2707.79C4693.27 2707.79 4690.08 2708.07 4686.33 2708.63C4682.78 2709.01 4680.06 2709.48 4678.19 2710.04V2823H4636.32V2683.06C4643.81 2680.44 4652.61 2678 4662.73 2675.76C4673.03 2673.32 4684.46 2672.1 4697.01 2672.1C4699.26 2672.1 4701.98 2672.29 4705.16 2672.66C4708.35 2672.85 4711.53 2673.23 4714.72 2673.79C4717.9 2674.16 4721.08 2674.73 4724.27 2675.47C4727.45 2676.04 4730.17 2676.79 4732.42 2677.72L4725.39 2712.29ZM4787.81 2750.22C4787.81 2777.01 4797.73 2790.4 4817.59 2790.4C4821.9 2790.4 4826.12 2789.84 4830.24 2788.72C4834.55 2787.59 4838.01 2786.19 4840.63 2784.5V2708.91C4838.57 2708.54 4835.95 2708.26 4832.77 2708.07C4829.58 2707.7 4826.12 2707.51 4822.37 2707.51C4810.94 2707.51 4802.32 2711.44 4796.52 2719.31C4790.71 2726.99 4787.81 2737.29 4787.81 2750.22ZM4745.09 2749.1C4745.09 2737.67 4746.78 2727.27 4750.15 2717.91C4753.71 2708.35 4758.77 2700.2 4765.33 2693.46C4771.88 2686.53 4779.94 2681.19 4789.49 2677.44C4799.05 2673.7 4809.91 2671.82 4822.09 2671.82C4827.15 2671.82 4832.39 2672.1 4837.82 2672.66C4843.44 2673.04 4848.88 2673.6 4854.12 2674.35C4859.55 2675.1 4864.71 2676.04 4869.58 2677.16C4874.45 2678.1 4878.76 2679.13 4882.5 2680.25V2874.99H4840.63V2819.35C4835.95 2821.41 4831.08 2823 4826.02 2824.12C4820.96 2825.25 4815.53 2825.81 4809.72 2825.81C4788.74 2825.81 4772.73 2818.97 4761.67 2805.3C4750.62 2791.43 4745.09 2772.7 4745.09 2749.1ZM5047.88 2817.94C5040.76 2820 5031.58 2821.88 5020.34 2823.56C5009.1 2825.44 4997.3 2826.37 4984.93 2826.37C4972.38 2826.37 4961.89 2824.69 4953.46 2821.31C4945.22 2817.94 4938.66 2813.26 4933.79 2807.26C4928.92 2801.08 4925.45 2793.78 4923.39 2785.35C4921.33 2776.92 4920.3 2767.64 4920.3 2757.53V2675.19H4962.17V2752.47C4962.17 2765.96 4963.95 2775.7 4967.51 2781.69C4971.07 2787.69 4977.72 2790.68 4987.46 2790.68C4990.46 2790.68 4993.64 2790.59 4997.02 2790.4C5000.39 2790.03 5003.38 2789.65 5006.01 2789.28V2675.19H5047.88V2817.94ZM5080.15 2750.22C5080.15 2737.11 5082.12 2725.68 5086.05 2715.94C5090.18 2706.01 5095.52 2697.77 5102.07 2691.21C5108.63 2684.65 5116.12 2679.69 5124.55 2676.32C5133.17 2672.95 5141.97 2671.26 5150.97 2671.26C5171.95 2671.26 5188.53 2677.72 5200.7 2690.65C5212.88 2703.39 5218.97 2722.21 5218.97 2747.13C5218.97 2749.57 5218.87 2752.28 5218.69 2755.28C5218.5 2758.09 5218.31 2760.62 5218.12 2762.87H5123.15C5124.08 2771.48 5128.11 2778.32 5135.23 2783.38C5142.35 2788.44 5151.9 2790.97 5163.89 2790.97C5171.57 2790.97 5179.07 2790.31 5186.37 2789C5193.87 2787.5 5199.95 2785.72 5204.64 2783.66L5210.26 2817.66C5208.01 2818.78 5205.01 2819.91 5201.26 2821.03C5197.52 2822.16 5193.3 2823.09 5188.62 2823.84C5184.12 2824.78 5179.25 2825.53 5174.01 2826.09C5168.76 2826.65 5163.52 2826.93 5158.27 2826.93C5144.97 2826.93 5133.36 2824.97 5123.43 2821.03C5113.69 2817.1 5105.54 2811.76 5098.98 2805.02C5092.61 2798.08 5087.83 2789.94 5084.65 2780.57C5081.65 2771.2 5080.15 2761.09 5080.15 2750.22ZM5178.5 2734.2C5178.32 2730.64 5177.66 2727.18 5176.54 2723.81C5175.6 2720.43 5174.01 2717.44 5171.76 2714.81C5169.7 2712.19 5166.98 2710.04 5163.61 2708.35C5160.43 2706.67 5156.4 2705.82 5151.53 2705.82C5146.84 2705.82 5142.82 2706.67 5139.44 2708.35C5136.07 2709.85 5133.26 2711.91 5131.01 2714.53C5128.77 2717.16 5126.99 2720.25 5125.68 2723.81C5124.55 2727.18 5123.71 2730.64 5123.15 2734.2H5178.5Z" fill="#0198B6"/>
<path d="M3647.64 3137C3643.52 3130.07 3638.74 3122.29 3633.31 3113.68C3628.06 3105.06 3622.35 3096.16 3616.17 3086.98C3609.99 3077.62 3603.52 3068.15 3596.78 3058.6C3590.22 3049.05 3583.67 3039.87 3577.11 3031.06C3570.55 3022.07 3564.18 3013.64 3558 3005.77C3551.82 2997.9 3546.11 2990.97 3540.86 2984.98V3137H3514.17V2942.27H3535.8C3544.61 2951.63 3553.97 2962.59 3563.9 2975.14C3574.02 2987.51 3583.95 3000.34 3593.69 3013.64C3603.62 3026.75 3612.89 3039.68 3621.51 3052.42C3630.31 3065.16 3637.71 3076.49 3643.71 3086.42V2942.27H3670.4V3137H3647.64ZM3708.77 3064.22C3708.77 3051.29 3710.64 3040.05 3714.39 3030.5C3718.14 3020.76 3723.1 3012.7 3729.28 3006.33C3735.46 2999.97 3742.58 2995.19 3750.64 2992C3758.69 2988.82 3766.94 2987.23 3775.37 2987.23C3795.04 2987.23 3810.12 2993.41 3820.61 3005.77C3831.1 3017.95 3836.34 3036.59 3836.34 3061.69C3836.34 3062.82 3836.34 3064.31 3836.34 3066.19C3836.34 3067.87 3836.25 3069.47 3836.06 3070.96H3736.03C3737.15 3086.14 3741.55 3097.66 3749.23 3105.53C3756.91 3113.4 3768.9 3117.33 3785.2 3117.33C3794.38 3117.33 3802.06 3116.58 3808.24 3115.08C3814.61 3113.4 3819.39 3111.8 3822.57 3110.3L3826.23 3132.22C3823.04 3133.91 3817.42 3135.69 3809.37 3137.56C3801.5 3139.44 3792.51 3140.37 3782.39 3140.37C3769.65 3140.37 3758.6 3138.5 3749.23 3134.75C3740.05 3130.82 3732.47 3125.48 3726.47 3118.73C3720.48 3111.99 3715.98 3104.03 3712.98 3094.85C3710.17 3085.48 3708.77 3075.27 3708.77 3064.22ZM3809.09 3049.89C3809.27 3038.09 3806.28 3028.44 3800.09 3020.95C3794.1 3013.27 3785.76 3009.43 3775.09 3009.43C3769.09 3009.43 3763.75 3010.64 3759.07 3013.08C3754.57 3015.33 3750.73 3018.32 3747.55 3022.07C3744.36 3025.82 3741.83 3030.13 3739.96 3035C3738.27 3039.87 3737.15 3044.83 3736.59 3049.89H3809.09ZM3993.31 3137C3988.06 3123.51 3982.44 3108.15 3976.45 3090.92C3970.64 3073.49 3965.3 3055.42 3960.43 3036.68C3955.56 3055.42 3950.22 3073.49 3944.41 3090.92C3938.61 3108.15 3933.08 3123.51 3927.84 3137H3905.07C3896.46 3117.7 3888.03 3095.69 3879.78 3070.96C3871.54 3046.24 3863.77 3019.54 3856.46 2990.88H3884.56C3886.43 2999.68 3888.68 3009.24 3891.31 3019.54C3893.93 3029.85 3896.64 3040.15 3899.45 3050.45C3902.45 3060.76 3905.54 3070.68 3908.73 3080.24C3911.91 3089.79 3914.91 3098.13 3917.72 3105.25C3920.9 3096.44 3923.99 3087.17 3926.99 3077.43C3930.18 3067.5 3933.17 3057.57 3935.98 3047.64C3938.79 3037.53 3941.42 3027.69 3943.85 3018.14C3946.47 3008.4 3948.72 2999.31 3950.6 2990.88H3972.23C3973.92 2999.31 3975.98 3008.4 3978.42 3018.14C3980.85 3027.69 3983.47 3037.53 3986.28 3047.64C3989.09 3057.57 3992 3067.5 3994.99 3077.43C3998.18 3087.17 4001.36 3096.44 4004.55 3105.25C4007.36 3098.13 4010.26 3089.79 4013.26 3080.24C4016.44 3070.68 4019.53 3060.76 4022.53 3050.45C4025.53 3040.15 4028.34 3029.85 4030.96 3019.54C4033.59 3009.24 4035.83 2999.68 4037.71 2990.88H4064.68C4057.38 3019.54 4049.6 3046.24 4041.36 3070.96C4033.12 3095.69 4024.69 3117.7 4016.07 3137H3993.31ZM4246.43 3110.02C4244.56 3105.53 4242.03 3099.81 4238.84 3092.88C4235.85 3085.95 4232.57 3078.46 4229.01 3070.4C4225.45 3062.35 4221.61 3054.1 4217.49 3045.67C4213.55 3037.06 4209.81 3029 4206.25 3021.51C4202.69 3013.83 4199.32 3006.99 4196.13 3001C4193.13 2995 4190.7 2990.41 4188.83 2987.23C4186.76 3009.33 4185.08 3033.31 4183.77 3059.16C4182.46 3084.83 4181.33 3110.77 4180.4 3137H4153.7C4154.45 3120.14 4155.29 3103.19 4156.23 3086.14C4157.17 3068.9 4158.2 3052.04 4159.32 3035.56C4160.63 3018.89 4161.94 3002.68 4163.25 2986.95C4164.75 2971.21 4166.35 2956.32 4168.03 2942.27H4191.92C4196.97 2950.51 4202.41 2960.25 4208.21 2971.49C4214.02 2982.73 4219.83 2994.53 4225.64 3006.9C4231.44 3019.07 4237.06 3031.34 4242.5 3043.71C4247.93 3055.88 4252.89 3067.03 4257.39 3077.15C4261.89 3067.03 4266.85 3055.88 4272.28 3043.71C4277.71 3031.34 4283.33 3019.07 4289.14 3006.9C4294.95 2994.53 4300.76 2982.73 4306.56 2971.49C4312.37 2960.25 4317.8 2950.51 4322.86 2942.27H4346.75C4353.12 3005.02 4357.89 3069.93 4361.08 3137H4334.38C4333.45 3110.77 4332.32 3084.83 4331.01 3059.16C4329.7 3033.31 4328.01 3009.33 4325.95 2987.23C4324.08 2990.41 4321.55 2995 4318.37 3001C4315.37 3006.99 4312.09 3013.83 4308.53 3021.51C4304.97 3029 4301.13 3037.06 4297.01 3045.67C4293.08 3054.1 4289.33 3062.35 4285.77 3070.4C4282.21 3078.46 4278.84 3085.95 4275.65 3092.88C4272.66 3099.81 4270.22 3105.53 4268.35 3110.02H4246.43ZM4393.98 3064.22C4393.98 3051.29 4395.85 3040.05 4399.6 3030.5C4403.35 3020.76 4408.31 3012.7 4414.49 3006.33C4420.68 2999.97 4427.8 2995.19 4435.85 2992C4443.91 2988.82 4452.15 2987.23 4460.58 2987.23C4480.25 2987.23 4495.33 2993.41 4505.82 3005.77C4516.31 3017.95 4521.56 3036.59 4521.56 3061.69C4521.56 3062.82 4521.56 3064.31 4521.56 3066.19C4521.56 3067.87 4521.46 3069.47 4521.27 3070.96H4421.24C4422.36 3086.14 4426.76 3097.66 4434.45 3105.53C4442.13 3113.4 4454.12 3117.33 4470.41 3117.33C4479.59 3117.33 4487.27 3116.58 4493.46 3115.08C4499.82 3113.4 4504.6 3111.8 4507.79 3110.3L4511.44 3132.22C4508.25 3133.91 4502.63 3135.69 4494.58 3137.56C4486.71 3139.44 4477.72 3140.37 4467.6 3140.37C4454.86 3140.37 4443.81 3138.5 4434.45 3134.75C4425.27 3130.82 4417.68 3125.48 4411.68 3118.73C4405.69 3111.99 4401.19 3104.03 4398.2 3094.85C4395.39 3085.48 4393.98 3075.27 4393.98 3064.22ZM4494.3 3049.89C4494.49 3038.09 4491.49 3028.44 4485.31 3020.95C4479.31 3013.27 4470.98 3009.43 4460.3 3009.43C4454.3 3009.43 4448.96 3010.64 4444.28 3013.08C4439.78 3015.33 4435.94 3018.32 4432.76 3022.07C4429.57 3025.82 4427.05 3030.13 4425.17 3035C4423.49 3039.87 4422.36 3044.83 4421.8 3049.89H4494.3ZM4646.49 3137C4644.43 3132.88 4641.9 3128.29 4638.9 3123.23C4635.9 3118.17 4632.62 3113.02 4629.06 3107.78C4625.5 3102.34 4621.85 3097 4618.11 3091.76C4614.36 3086.51 4610.71 3081.55 4607.15 3076.87C4603.59 3081.55 4599.93 3086.61 4596.19 3092.04C4592.44 3097.29 4588.79 3102.62 4585.23 3108.06C4581.86 3113.3 4578.67 3118.45 4575.67 3123.51C4572.68 3128.57 4570.15 3133.07 4568.09 3137H4541.11C4547.67 3124.26 4555.44 3111.34 4564.43 3098.22C4573.61 3084.92 4582.7 3072.28 4591.69 3060.29L4543.36 2990.88H4572.86L4607.71 3042.02L4642.83 2990.88H4670.65L4623.44 3058.6C4632.44 3070.78 4641.62 3083.7 4650.98 3097.38C4660.54 3110.87 4668.59 3124.07 4675.15 3137H4646.49ZM4728.75 3137H4702.61V2990.88H4728.75V3137ZM4715.54 2964.47C4710.86 2964.47 4706.83 2962.97 4703.46 2959.97C4700.27 2956.79 4698.68 2952.57 4698.68 2947.32C4698.68 2942.08 4700.27 2937.96 4703.46 2934.96C4706.83 2931.78 4710.86 2930.18 4715.54 2930.18C4720.22 2930.18 4724.16 2931.78 4727.34 2934.96C4730.71 2937.96 4732.4 2942.08 4732.4 2947.32C4732.4 2952.57 4730.71 2956.79 4727.34 2959.97C4724.16 2962.97 4720.22 2964.47 4715.54 2964.47ZM4837.19 3140.37C4825.39 3140.37 4814.99 3138.5 4806 3134.75C4797.2 3131.01 4789.7 3125.76 4783.52 3119.02C4777.53 3112.27 4773.03 3104.31 4770.03 3095.13C4767.04 3085.76 4765.54 3075.46 4765.54 3064.22C4765.54 3052.98 4767.13 3042.68 4770.32 3033.31C4773.69 3023.94 4778.37 3015.89 4784.37 3009.14C4790.36 3002.21 4797.67 2996.87 4806.28 2993.13C4815.09 2989.19 4824.83 2987.23 4835.51 2987.23C4842.06 2987.23 4848.62 2987.79 4855.18 2988.91C4861.73 2990.04 4868.01 2991.82 4874 2994.25L4868.1 3016.45C4864.17 3014.58 4859.58 3013.08 4854.33 3011.95C4849.28 3010.83 4843.84 3010.27 4838.04 3010.27C4823.42 3010.27 4812.18 3014.86 4804.32 3024.04C4796.64 3033.22 4792.8 3046.61 4792.8 3064.22C4792.8 3072.09 4793.64 3079.3 4795.32 3085.86C4797.2 3092.41 4800.01 3098.03 4803.75 3102.72C4807.69 3107.4 4812.65 3111.05 4818.65 3113.68C4824.64 3116.11 4831.95 3117.33 4840.57 3117.33C4847.5 3117.33 4853.77 3116.67 4859.39 3115.36C4865.01 3114.05 4869.41 3112.65 4872.6 3111.15L4876.25 3133.07C4874.75 3134 4872.6 3134.94 4869.79 3135.88C4866.98 3136.63 4863.79 3137.28 4860.24 3137.84C4856.68 3138.59 4852.84 3139.15 4848.71 3139.53C4844.78 3140.09 4840.94 3140.37 4837.19 3140.37ZM5029.72 3063.94C5029.72 3075.55 5028.03 3086.05 5024.66 3095.41C5021.29 3104.78 5016.51 3112.83 5010.33 3119.58C5004.34 3126.32 4997.12 3131.57 4988.69 3135.31C4980.26 3138.87 4971.08 3140.65 4961.16 3140.65C4951.23 3140.65 4942.05 3138.87 4933.62 3135.31C4925.19 3131.57 4917.88 3126.32 4911.7 3119.58C4905.71 3112.83 4901.02 3104.78 4897.65 3095.41C4894.28 3086.05 4892.59 3075.55 4892.59 3063.94C4892.59 3052.51 4894.28 3042.12 4897.65 3032.75C4901.02 3023.19 4905.71 3015.05 4911.7 3008.3C4917.88 3001.56 4925.19 2996.41 4933.62 2992.85C4942.05 2989.1 4951.23 2987.23 4961.16 2987.23C4971.08 2987.23 4980.26 2989.1 4988.69 2992.85C4997.12 2996.41 5004.34 3001.56 5010.33 3008.3C5016.51 3015.05 5021.29 3023.19 5024.66 3032.75C5028.03 3042.12 5029.72 3052.51 5029.72 3063.94ZM5002.46 3063.94C5002.46 3047.45 4998.72 3034.43 4991.22 3024.88C4983.92 3015.14 4973.89 3010.27 4961.16 3010.27C4948.42 3010.27 4938.3 3015.14 4930.81 3024.88C4923.5 3034.43 4919.85 3047.45 4919.85 3063.94C4919.85 3080.43 4923.5 3093.54 4930.81 3103.28C4938.3 3112.83 4948.42 3117.61 4961.16 3117.61C4973.89 3117.61 4983.92 3112.83 4991.22 3103.28C4998.72 3093.54 5002.46 3080.43 5002.46 3063.94Z" fill="#0198B6"/>
<path d="M2639.5 2460C2554.23 2460 2484.86 2531.16 2484.86 2618.63C2484.86 2727.17 2623.25 2886.53 2629.14 2893.26C2634.67 2899.58 2644.34 2899.57 2649.86 2893.26C2655.75 2886.53 2794.14 2727.17 2794.14 2618.63C2794.14 2531.16 2724.77 2460 2639.5 2460ZM2639.5 2698.44C2596.6 2698.44 2561.7 2662.63 2561.7 2618.63C2561.7 2574.62 2596.6 2538.82 2639.5 2538.82C2682.4 2538.82 2717.3 2574.62 2717.3 2618.63C2717.3 2662.63 2682.4 2698.44 2639.5 2698.44Z" fill="#2D9FB5"/>
</svg>