<svg width="796" height="670" viewBox="0 0 796 670" fill="none" xmlns="http://www.w3.org/2000/svg">
<path d="M494.518 570.928C492.229 567.615 486.178 571.531 479.865 567.012C478.201 565.821 476.154 564.837 474.024 564C473.871 564.1 473.737 564.221 473.539 564.308C472.188 564.723 468.024 568.639 464 572.655C468.54 576.417 485.444 582 490.067 582C492.248 582 493.402 580.962 494.403 580.126C495.047 575.728 495.29 572.053 494.518 570.928Z" fill="#B3B3B3" stroke="white" stroke-width="0.25" stroke-miterlimit="10"/>
<path d="M508.507 580.782C509.08 579.559 505.063 572.514 512.81 571.902C520.563 571.291 526.292 570.374 527.444 565.17C528.596 559.972 537.762 562.425 540.347 562.112C542.479 561.874 549.315 555.155 555.999 555.42C556.101 548.463 547.234 550.712 541.111 544.169C534.573 537.212 520.302 540.371 512.593 543.537C504.859 546.71 495.954 540.038 487.628 545.107C487.52 545.175 487.444 545.222 487.342 545.256C485.521 547.688 483.026 550.718 480.111 553.232C474.503 558.083 476.05 562.873 474 564.259C476.126 565.108 478.169 566.107 479.831 567.316C486.139 571.902 492.167 567.928 494.458 571.291C495.229 572.432 494.987 576.169 494.325 580.626C495.496 579.614 496.381 578.9 498.322 580.626C500.06 582.175 499.754 584.104 499.519 586L504.484 584.75C504.49 584.77 507.934 582.026 508.507 580.782Z" fill="#B3B3B3" stroke="white" stroke-width="0.25" stroke-miterlimit="10"/>
<path d="M441.672 540.63C443.1 540.326 457.963 542.459 459.398 538.511C460.832 534.564 448.241 525.746 449.675 524.822C451.109 523.911 451.668 514.202 453.959 514.202C456.25 514.202 477.13 514.809 478.272 514.202C479.427 513.581 483.425 505.673 486.859 505.37C488.426 505.228 490.882 507.259 493.078 509.492C496.918 505.7 498.289 497.158 499.025 490.222C499.92 481.721 497.254 478.881 501.399 474.165C505.549 469.428 509.992 469.124 508.805 462.499C507.612 455.893 502.001 462.499 497.261 459.348C492.52 456.197 488.382 458.403 476.235 460.306C464.088 462.182 458.458 467.552 459.055 476.674C459.645 485.817 454.917 481.721 455.215 489.588C455.507 497.462 445.734 497.779 446.33 502.516C446.927 507.232 438.626 502.516 436.252 500.93C433.885 499.372 408.404 507.549 404.856 508.17C401.296 508.804 394.784 500.309 389.752 500.627C384.719 500.93 382.644 492.746 382.041 486.141C381.451 479.535 371.969 473.544 367.831 467.572C363.68 461.568 363.09 448.337 362.798 439.842C362.5 431.341 361.605 416.861 367.235 400.169C367.99 397.922 368.345 395.979 368.428 394.238C366.384 392.896 364.379 391.924 362.868 392.025C357.804 392.369 346.412 384.961 344.197 384.961C341.982 384.961 342.299 379.233 340.395 376.203C338.498 373.181 339.754 367.446 337.228 365.428C334.703 363.411 327.1 355.679 324.58 346.239C322.054 336.821 306.531 332.111 300.838 331.774C295.152 331.43 291.978 344.236 290.392 344.883C288.811 345.572 278.054 338.163 274.894 336.476C271.727 334.796 270.147 331.43 270.147 327.388C270.147 323.333 263.502 316.95 261.591 316.282C259.694 315.594 246.398 301.803 246.398 301.803H225.499L221.076 307.848L183.105 308.199C183.105 308.199 153.981 296.763 148.599 295.414C143.211 294.071 133.717 287 133.717 287L103 291.284C104.574 294.867 106.776 298.754 110.064 303.126C116.277 311.31 120.738 325.782 121.322 330.822C121.906 335.862 130.499 339.958 137.905 345.018C145.312 350.031 145.312 361.07 144.417 363.903C143.528 366.737 134.345 362.028 133.755 364.862C133.152 367.695 145.597 378.713 150.338 378.093C155.079 377.445 157.453 380.609 164.853 387.532C172.259 394.447 171.662 402.638 168.698 405.155C165.735 407.678 174.632 413.029 184.114 419.635C193.583 426.24 197.442 434.438 198.324 437.899C199.219 441.38 203.356 438.229 204.835 433.5C206.314 428.784 201.871 427.508 201.871 422.158C201.871 416.801 194.167 417.752 190.619 417.131C187.059 416.484 190.917 408.299 187.357 404.528C183.79 400.736 180.547 391.297 178.764 384.388C176.993 377.452 167.797 370.522 163.958 362.966C160.112 355.395 155.961 349.417 153.289 347.521C150.617 345.646 157.129 342.812 154.762 339.978C152.388 337.138 148.828 337.455 144.385 335.248C139.949 333.049 136.979 329.271 136.979 324.23C136.979 319.184 134.015 307.221 132.543 303.132C131.058 299.037 135.805 299.658 137.277 301.554C138.762 303.436 139.949 305.345 142.024 304.077C144.1 302.808 147.654 303.753 149.132 307.234C150.605 310.696 155.644 307.545 158.011 309.117C160.385 310.676 152.68 312.592 160.385 327.064C168.096 341.544 162.758 333.373 162.758 343.129C162.758 352.885 167.505 348.486 168.971 346.914C170.444 345.349 174.607 350.058 178.453 355.105C182.299 360.152 189.699 360.456 189.699 363.289C189.699 366.137 191.171 371.811 196.21 372.742C201.243 373.687 202.144 379.658 205.394 380.292C208.656 380.933 209.24 384.705 207.463 388.8C205.698 392.889 207.463 396.364 215.764 399.832C224.065 403.306 220.213 403.92 226.737 410.546C233.248 417.158 251.621 438.56 255.474 444.558C259.319 450.55 260.513 455.583 261.985 459.975C263.457 464.381 259.015 466.587 261.388 470.386C263.756 474.171 256.952 472.586 257.244 475.419C257.542 478.267 261.388 492.429 267.919 493.05C274.43 493.69 281.837 502.185 287.168 506.922C292.505 511.624 300.502 510.7 308.498 513.831C316.495 516.975 323.304 524.538 334.855 528.026C346.399 531.494 357.677 536.845 365.07 541.878C372.483 546.918 381.66 544.726 392.03 540.313C402.407 535.914 410.403 541.581 416.324 544.105C419.244 545.353 424.975 550.562 430.712 556C435.979 547.978 441.006 540.772 441.672 540.63Z" fill="#B3B3B3" stroke="white" stroke-width="0.25" stroke-miterlimit="10"/>
<path d="M480.67 553.286C483.625 550.785 486.168 547.796 488 545.349C483.283 548.026 481.838 545.464 482.528 541.975L475.721 542.935L476.412 514.176C470.921 514.426 455.577 514 453.609 514C451.293 514 450.712 523.729 449.254 524.641C447.795 525.588 460.597 534.404 459.139 538.358C457.674 542.327 442.563 540.191 441.117 540.481C440.44 540.623 435.33 547.851 430 555.835C436.007 561.419 441.995 567.247 444.905 569.167C450.628 572.966 459.965 568.849 463.875 572.655C463.997 572.763 464.159 572.885 464.301 573C468.372 568.944 472.585 564.968 473.953 564.569C476.896 563.643 474.56 558.465 480.67 553.286Z" fill="#B3B3B3" stroke="white" stroke-width="0.25" stroke-miterlimit="10"/>
<path d="M477.651 513.89C477.474 513.992 476.732 514.039 475.702 514.067L475 543L481.923 542.034C482.415 539.558 483.984 536.627 486.248 534.804C491.766 530.37 483.491 512.577 489.929 510.999C491.117 510.693 492.094 510.006 493 509.149C490.703 506.898 488.17 504.864 486.549 505.007C482.98 505.293 478.839 513.264 477.651 513.89Z" fill="#B3B3B3" stroke="white" stroke-width="0.25" stroke-miterlimit="10"/>
<path d="M690.087 481.044C684.222 485.511 698.862 495.079 698.862 500.809C698.862 506.56 675.365 499.751 673.101 505.918C671.922 509.121 681.305 513.56 690.087 510.371C698.26 507.407 703.874 510.507 708.403 513C709.055 503.35 710.078 492.457 711 485.053C703.579 482.984 694.346 477.793 690.087 481.044Z" fill="#B3B3B3" stroke="white" stroke-width="0.25" stroke-miterlimit="10"/>
<path d="M726.427 506.989C736.988 503.176 754 510.151 754 501.283C754 492.402 725.855 482.917 718.8 485.454C716.878 486.14 714.365 485.773 711.601 485C710.677 492.355 709.647 503.176 709 512.763C709.346 512.953 709.672 513.163 710.005 513.319C714.698 515.85 715.867 510.782 726.427 506.989Z" fill="#B3B3B3" stroke="white" stroke-width="0.25" stroke-miterlimit="10"/>
<path d="M530.169 613.643C533.084 615.201 540.368 613.643 543.283 615.99C544.706 617.137 547.086 617.164 549.843 616.773C548.993 615.451 548.345 614.385 548.011 613.724C545.959 609.651 549.472 601.456 551.247 595.467C553.004 589.465 549.787 575.018 553.004 571.235C556.24 567.444 554.465 565.232 555.95 556.437C556.045 555.857 555.976 555.459 555.976 555.008C549.359 554.745 542.603 561.415 540.494 561.651C537.938 561.961 528.859 559.547 527.732 564.686C526.586 569.872 520.926 570.762 513.258 571.369C505.602 571.976 509.569 578.97 509.002 580.184C508.429 581.425 505.023 584.157 505.023 584.157L500.119 585.384C499.886 587.361 499.753 589.303 502.165 590.753C506.861 593.579 513.321 604.613 518.32 607.445C520.725 608.794 522.217 611.027 522.853 613.205C525.743 612.949 528.664 612.841 530.169 613.643Z" fill="#B3B3B3" stroke="white" stroke-width="0.25" stroke-miterlimit="10"/>
<path d="M560.979 643.991C560.543 642.315 560.795 638.038 563 634.762C558.168 629.084 552.748 621.407 549.848 616.847C547.081 617.247 544.693 617.22 543.266 616.047C540.341 613.646 533.032 615.261 530.108 613.646C528.604 612.826 525.667 612.929 522.774 613.184C523.462 615.571 523.146 617.882 521.769 618.896C519.116 620.813 518.819 628.539 525.319 631.43C531.794 634.327 529.735 629.843 532.982 629.843C536.235 629.843 535.932 635.313 538.888 635.313C541.838 635.313 548.623 639.183 548.326 644.329C548.029 649.475 550.682 651.731 555.994 651.731C556.955 651.731 558.066 651.834 559.21 652C560.1 648.558 561.44 645.764 560.979 643.991Z" fill="#B3B3B3" stroke="white" stroke-width="0.25" stroke-miterlimit="10"/>
<path d="M628.629 643.42C623.888 635.744 615.288 636.394 609.97 633.833C604.632 631.279 597.822 634.812 591.012 641.517C584.202 648.221 575.609 644.386 569.688 640.873C567.936 639.825 565.461 637.312 562.821 634.244C560.593 637.497 560.339 641.743 560.79 643.407C561.253 645.174 559.901 647.94 559 651.357C564.877 652.138 572.493 654.919 576.206 659.733C580.648 665.492 583.314 661.636 585.986 666.759C588.658 671.874 594.865 667.067 596.356 663.876C597.835 660.685 593.094 659.411 592.517 655.898C591.92 652.364 598.451 653.652 599.618 648.851C600.812 644.064 610.287 641.825 614.431 643.742C618.576 645.66 622.143 648.851 618.284 653.652C615.415 657.22 621.26 663.636 626.147 668.635C629.574 664.828 633.516 660.5 635.153 659.212C636.054 658.5 636.607 656.788 637 654.706C634.626 653.515 631.916 648.769 628.629 643.42Z" fill="#B3B3B3" stroke="white" stroke-width="0.25" stroke-miterlimit="10"/>
<path d="M650.775 463.623C641.848 463.623 612.648 442.413 585.842 436.188C559.035 429.951 535.655 450.126 538.188 453.646C541.762 458.635 554.862 447.395 561.422 442.413C567.981 437.431 573.928 444.904 574.535 448.029C575.134 451.148 583.462 453.011 597.174 453.646C610.874 454.28 612.667 466.108 625.755 469.22C638.868 472.366 625.755 477.982 632.308 480.466C638.855 482.964 673.408 482.316 675.788 479.211C678.181 476.092 659.714 463.623 650.775 463.623Z" fill="#B3B3B3" stroke="white" stroke-width="0.25" stroke-miterlimit="10"/>
<path d="M620.191 507.237C622.596 511.309 645.47 517.178 647.875 511.91C650.28 506.642 617.206 502.138 620.191 507.237Z" fill="#B3B3B3" stroke="white" stroke-width="0.25" stroke-miterlimit="10"/>
<path d="M772.652 508.405C778.055 516.792 793.511 511.777 794.862 508.405C797.274 502.437 767.249 500.057 772.652 508.405Z" fill="#B3B3B3" stroke="white" stroke-width="0.25" stroke-miterlimit="10"/>
<path d="M763.775 41.1051C763.382 36.9155 751.529 40.2618 746.009 35.6471C740.476 31.0054 731.003 52.0279 729.023 60.8322C727.044 69.65 712.443 79.291 712.443 79.291C712.443 79.291 670.185 79.7093 666.619 79.7093C664.144 79.7093 654.443 88.6081 648.751 94.0526C648.916 94.282 649.094 94.5248 649.252 94.8149C653.523 103.012 637.996 108.045 623.187 108.679C618.631 108.861 615.204 109.374 612.558 109.759C613.079 111.681 613.485 113.813 613.314 115.385C613.199 116.391 611.607 117.639 609.354 118.907C607.095 123.798 588.91 133.217 578.752 138.911C567.502 145.219 552.102 142.061 552.102 132.603C552.102 123.164 560.395 125.047 562.172 129.452C562.832 131.098 564.837 129.891 567.546 127.84C564.742 124.918 564.773 120.277 565.382 116.714C561.988 115.136 567.273 101.035 560.395 98.5998C553.295 96.0698 544.996 109.3 546.182 101.103C547.375 92.9124 558.028 85.9904 551.512 75.2902C545.008 64.5834 533.143 64.5834 530.77 72.7603C528.397 80.9574 520.11 77.1658 517.153 83.4739C514.196 89.7819 511.22 103.633 513.594 113.705C515.96 123.778 512.997 128.811 504.12 134.485C495.231 140.152 490.573 125.822 494.038 107.397C496.411 94.7947 502.915 82.8329 497.007 82.8329C491.081 82.8329 504.71 67.7071 517.147 64.5631C529.583 61.399 544.995 62.674 544.995 58.8824C544.995 58.1268 545.56 57.6141 546.499 57.27C543.968 55.1448 541.144 53.1411 538.892 51.6433C538.657 52.4394 538.174 53.1883 537.286 53.8427C532.407 57.4589 533.727 48.1688 524.85 48.1688C515.967 48.1688 507.077 56.9934 499.971 53.2153C492.858 49.4237 496.405 44.384 489.901 44.384C483.391 44.384 494.641 31.1606 485.161 36.8278C475.681 42.5084 461.475 56.3659 454.952 50.0579C448.435 43.7565 442.503 51.9469 437.769 46.9072C433.029 41.8608 454.349 28.01 464.419 28.6441C466.906 28.7858 469.159 27.6456 471.278 25.8241C465.986 23.7461 455.053 19.2191 452.173 22.9702C448.613 27.5984 443.486 24.6367 440.713 20.8653C437.941 17.0737 434.394 22.1269 429.654 16.2439C424.914 10.3541 420.181 14.5572 417.414 15.8188C414.648 17.0872 411.094 13.7139 405.955 11.6292C400.815 9.52422 404.762 4.06629 400.428 0.706473C396.082 -2.65334 395.828 7.06169 395.828 7.06169L27.6901 9.16671C28.0962 9.84137 28.5277 10.462 28.9973 10.995C33.4325 16.0347 29.8855 19.8128 31.3576 25.7971C32.8297 31.7813 31.6622 40.2753 27.2206 40.2753C22.7791 40.2753 22.1889 34.9253 25.4503 33.0295C28.7117 31.1539 26.9288 24.2116 23.6801 24.2116C21.7765 24.2116 21.015 21.8301 21.0975 19.0505C15.057 20.8383 8.10272 20.0288 0 18.983C0.133248 19.3541 0.260139 19.7049 0.285519 20.103C0.577395 23.8878 2.36046 32.375 7.09392 39.0002C11.8337 45.6052 8.56598 49.7138 13.0266 52.2303C17.4745 54.7468 17.1636 57.5871 13.0266 56.9394C8.88323 56.3188 11.8337 60.4207 10.3617 69.866C8.88324 79.3112 9.16875 98.8292 8.29312 104.834C7.39846 110.818 0.888331 120.58 4.73348 126.888C8.57228 133.19 11.2436 141.994 9.16875 149.867C7.10024 157.747 7.39847 162.457 10.6472 168.448C13.9086 174.439 11.2436 184.828 14.7905 187.028C18.3502 189.241 21.6051 193.633 24.8602 199.3C28.1216 204.987 31.0721 201.513 31.6685 207.18C32.2586 212.854 32.2587 213.785 36.9985 216.004C41.7446 218.21 38.7751 223.871 38.7751 227.028C38.7751 230.179 44.9869 235.86 52.6899 243.099C60.3866 250.331 53.8828 256.322 59.4919 256.322C65.1264 256.322 70.4627 259.797 76.0781 263.561C81.6999 267.346 83.4828 265.126 87.328 266.078C91.1668 267.029 98.2924 275.84 99.7644 281.824C100.456 284.631 101.37 287.593 102.772 290.784L133.482 286.5C133.482 286.5 142.975 293.57 148.355 294.913C153.742 296.242 182.86 307.691 182.86 307.691L220.823 307.347L225.246 301.302H246.134C246.134 301.302 259.427 315.099 261.33 315.78C263.234 316.455 269.884 322.837 269.884 326.885C269.884 330.926 271.463 334.293 274.63 335.973C277.796 337.659 288.551 345.06 290.124 344.379C291.704 343.711 294.877 330.926 300.569 331.27C306.26 331.607 321.768 336.303 324.306 345.735C326.818 355.153 334.426 362.905 336.952 364.922C339.471 366.94 338.221 372.654 340.118 375.697C342.021 378.726 341.698 384.447 343.919 384.447C346.146 384.447 357.535 391.862 362.586 391.518C364.09 391.416 366.095 392.388 368.144 393.717C368.766 382.47 357.865 380.581 364.286 375.407C371.691 369.402 363.994 364.376 367.554 361.853C371.12 359.336 377.326 356.82 377.326 353.028C377.326 349.243 380.593 349.243 385.327 349.877C390.067 350.505 398.943 341.68 398.366 338.213C397.77 334.738 399.254 334.131 404.87 335.372C410.504 336.64 409.61 328.45 413.169 329.705C416.729 330.973 419.679 333.179 419.978 330.339C420.282 327.492 423.823 328.14 426.488 331.904C429.153 335.696 436.862 336.627 437.452 332.228C438.055 327.83 442.496 332.228 446.335 336.627C450.18 341.033 451.97 339.778 457.585 340.102C463.213 340.419 463.213 338.833 463.511 335.062C463.816 331.284 469.73 343.246 475.364 343.886C480.999 344.527 476.557 340.102 472.401 336.647C468.251 333.18 473.289 331.608 469.736 328.774C466.176 325.934 474.171 322.162 481.278 322.479C488.391 322.783 488.086 324.672 490.757 320.267C493.422 315.854 496.087 320.267 496.087 324.051C496.087 327.843 507.629 321.852 513.86 321.852C520.072 321.852 525.7 327.512 526.296 331.297C526.893 335.082 531.043 336.964 535.478 332.862C539.913 328.774 543.777 324.031 547.914 328.45C552.051 332.869 556.214 338.847 561.252 344.197C566.283 349.547 558.879 356.165 561.544 360.261C564.209 364.356 561.252 370.03 567.178 374.449C573.111 378.854 567.774 387.996 572.508 389.251C577.248 390.519 581.099 398.386 581.683 401.516C582.28 404.667 591.163 408.762 591.759 403.398C592.349 398.048 597.095 391.733 597.692 386.707C598.288 381.674 594.132 363.715 590.287 358.048C586.435 352.374 591.175 351.125 586.436 344.507C581.696 337.889 578.739 326.23 579.031 316.792C579.335 307.353 589.703 291.911 594.735 287.174C599.767 282.465 605.407 284.982 606.588 279.942C607.781 274.902 613.992 268.601 617.552 268.601C621.118 268.601 624.957 269.552 625.547 265.457C626.15 261.369 632.063 256.322 639.766 255.06C647.469 253.792 643.028 249.38 640.959 245.622C638.884 241.83 642.73 238.059 644.214 240.575C645.686 243.099 650.426 243.409 653.396 241.216C656.359 239.017 663.173 233.026 656.663 232.709C650.147 232.392 648.656 229.558 652.514 227.98C656.359 226.421 653.104 218.845 647.774 218.231C642.438 217.583 644.208 214.763 647.476 211.302C650.743 207.841 642.736 202.174 638.884 199.347C635.039 196.507 641.251 194.948 644.214 194.314C647.184 193.673 644.817 179.195 646.289 175.734C647.761 172.266 652.793 172.266 650.731 175.734C648.656 179.195 645.686 184.869 649.538 189.591C653.383 194.314 654.57 199.347 653.091 206.6C651.619 213.852 654.57 211.956 659.024 202.511C663.472 193.073 664.062 184.889 661.099 183.931C658.135 182.986 658.434 173.548 661.695 177.94C664.95 182.352 666.13 182.986 671.168 177.306C676.2 171.632 681.543 161.89 678.275 159.677C675.007 157.477 679.747 155.271 685.68 155.602C691.612 155.912 704.328 151.81 705.229 149.921C708.122 143.775 684.785 152.755 684.785 149.28C684.785 145.813 699.595 142.358 706.409 142.048C713.224 141.738 709.975 131.975 712.919 136.05C715.882 140.139 720.324 139.525 724.163 137.008C728.014 134.492 725.064 127.253 720.61 125.991C716.168 124.723 723.871 121.579 722.38 118.745C720.901 115.912 725.343 104.557 730.971 103.316C736.599 102.047 733.934 98.2692 738.674 98.2692C743.414 98.2692 744.302 92.2849 748.446 87.8929C752.595 83.4806 758.515 94.8014 765.032 88.5203C767.697 85.9364 771.301 83.0624 775 80.5594C759.841 59.2603 764.143 44.9844 763.775 41.1051Z" fill="#0198B6"/>
<path d="M631.716 424.555C630.877 426.389 626.579 422.174 626.46 418.913C626.342 415.692 622 415.091 622 409.463C622 403.821 624.118 400.46 626.79 405.388C629.467 410.297 627.69 413.538 628.125 415.932C628.591 418.319 633.17 421.32 631.716 424.555Z" fill="#B3B3B3" stroke="white" stroke-width="0.25" stroke-miterlimit="10"/>
<path d="M260.502 274.651C267.707 274.651 273.547 269.013 273.547 262.057C273.547 255.102 267.707 249.464 260.502 249.464C253.298 249.464 247.457 255.102 247.457 262.057C247.457 269.013 253.298 274.651 260.502 274.651Z" stroke="white" stroke-width="0.2835" stroke-miterlimit="10"/>
<path d="M236.346 262.057H284.651" stroke="white" stroke-width="0.2835" stroke-miterlimit="10"/>
<path d="M260.503 238.736V285.379" stroke="white" stroke-width="0.2835" stroke-miterlimit="10"/>
<path d="M309.62 258.235C309.423 257.714 309.215 257.177 308.998 256.63C308.791 256.092 308.554 255.529 308.347 254.991H301.556C301.348 255.529 301.121 256.092 300.904 256.63C300.677 257.177 300.48 257.723 300.292 258.235H296.226C296.877 256.613 297.499 255.119 298.081 253.745C298.664 252.37 299.246 251.081 299.809 249.861C300.371 248.649 300.924 247.505 301.467 246.412C302.02 245.319 302.582 244.252 303.165 243.211H306.866C307.448 244.252 308.001 245.319 308.554 246.412C309.117 247.505 309.669 248.657 310.222 249.861C310.795 251.09 311.367 252.379 311.959 253.745C312.552 255.119 313.164 256.613 313.815 258.235H309.62ZM304.922 246.6C304.823 246.822 304.704 247.129 304.537 247.487C304.359 247.855 304.171 248.298 303.954 248.785C303.747 249.289 303.5 249.818 303.244 250.407C302.977 250.996 302.701 251.619 302.434 252.268H307.399C307.133 251.619 306.866 251.005 306.629 250.398C306.382 249.801 306.146 249.263 305.919 248.768C305.701 248.273 305.504 247.846 305.326 247.471C305.159 247.112 305.02 246.822 304.922 246.6Z" fill="white"/>
<path d="M321.063 258.448C319.977 258.44 319.099 258.32 318.408 258.141C317.747 257.953 317.194 257.68 316.799 257.339C316.414 257.006 316.148 256.587 316.009 256.101C315.851 255.614 315.792 255.068 315.792 254.462V241.896L319.533 241.375V253.813C319.533 254.095 319.553 254.351 319.602 254.59C319.652 254.812 319.76 255.017 319.888 255.162C320.036 255.333 320.234 255.452 320.5 255.563C320.767 255.665 321.122 255.734 321.576 255.751L321.063 258.448Z" fill="white"/>
<path d="M335.984 252.517C335.984 253.431 335.826 254.258 335.52 254.993C335.214 255.727 334.76 256.358 334.178 256.879C333.585 257.408 332.875 257.801 332.016 258.091C331.167 258.365 330.19 258.518 329.104 258.518C328.66 258.518 328.176 258.501 327.683 258.467C327.189 258.433 326.706 258.373 326.232 258.313C325.758 258.254 325.304 258.185 324.87 258.117C324.435 258.032 324.05 257.946 323.715 257.869V241.923L327.456 241.402V247.088C327.87 246.917 328.305 246.806 328.769 246.721C329.223 246.627 329.706 246.576 330.21 246.576C331.147 246.576 331.977 246.729 332.687 247.002C333.408 247.284 334.01 247.685 334.503 248.214C334.987 248.735 335.352 249.358 335.599 250.092C335.866 250.818 335.984 251.621 335.984 252.517ZM332.174 252.432C332.174 250.349 331.285 249.307 329.499 249.307C329.114 249.307 328.749 249.35 328.374 249.435C327.999 249.529 327.693 249.631 327.446 249.76V255.641C327.643 255.667 327.86 255.693 328.147 255.718C328.433 255.744 328.759 255.752 329.074 255.752C330.101 255.752 330.871 255.445 331.384 254.839C331.907 254.233 332.174 253.43 332.174 252.432Z" fill="white"/>
<path d="M350.132 257.842C349.5 258.004 348.681 258.15 347.674 258.286C346.657 258.431 345.621 258.491 344.515 258.491C343.4 258.491 342.462 258.355 341.722 258.107C340.981 257.842 340.389 257.484 339.955 257.014C339.521 256.536 339.215 255.981 339.027 255.333C338.83 254.675 338.751 253.967 338.751 253.181V246.83H342.492V252.797C342.492 253.839 342.65 254.59 342.966 255.051C343.281 255.512 343.874 255.751 344.742 255.751C345.009 255.751 345.305 255.742 345.591 255.717C345.897 255.691 346.173 255.666 346.4 255.64V246.839H350.141V257.842H350.132Z" fill="white"/>
<path d="M353.009 252.525C353.009 251.637 353.167 250.834 353.473 250.109C353.779 249.383 354.223 248.751 354.816 248.222C355.398 247.693 356.119 247.292 356.967 246.984C357.816 246.703 358.803 246.549 359.879 246.549C360.333 246.549 360.807 246.566 361.311 246.6C361.804 246.634 362.288 246.694 362.752 246.754C363.216 246.813 363.68 246.882 364.134 246.95C364.568 247.036 364.953 247.121 365.279 247.198V262.231H361.548V257.937C361.133 258.107 360.699 258.218 360.245 258.304C359.79 258.389 359.307 258.44 358.803 258.44C356.938 258.44 355.507 257.911 354.5 256.835C353.503 255.777 353.009 254.343 353.009 252.525ZM356.819 252.61C356.819 254.676 357.708 255.709 359.485 255.709C359.869 255.709 360.254 255.666 360.63 255.581C361.005 255.487 361.311 255.384 361.548 255.256V249.409C361.36 249.383 361.133 249.357 360.856 249.332C360.57 249.306 360.254 249.298 359.919 249.298C358.902 249.298 358.132 249.596 357.629 250.185C357.086 250.817 356.819 251.62 356.819 252.61Z" fill="white"/>
<path d="M380.057 257.842C379.435 258.004 378.616 258.15 377.599 258.286C376.593 258.431 375.546 258.491 374.451 258.491C373.335 258.491 372.398 258.355 371.657 258.107C370.917 257.842 370.325 257.484 369.891 257.014C369.446 256.536 369.15 255.981 368.953 255.333C368.765 254.675 368.686 253.967 368.686 253.181V246.83H372.427V252.797C372.427 253.839 372.585 254.59 372.901 255.051C373.217 255.512 373.809 255.751 374.678 255.751C374.944 255.751 375.24 255.742 375.527 255.717C375.833 255.691 376.109 255.666 376.336 255.64V246.839H380.067V257.842H380.057Z" fill="white"/>
<path d="M382.939 252.61C382.939 251.594 383.127 250.715 383.492 249.955C383.847 249.195 384.321 248.564 384.913 248.043C385.505 247.539 386.167 247.155 386.937 246.891C387.697 246.635 388.476 246.506 389.286 246.506C391.142 246.506 392.632 247.002 393.718 247.992C394.804 248.982 395.346 250.442 395.346 252.362C395.346 252.55 395.337 252.764 395.327 252.977C395.307 253.199 395.297 253.404 395.277 253.575H386.808C386.897 254.241 387.252 254.77 387.874 255.162C388.506 255.555 389.365 255.752 390.431 255.752C391.112 255.752 391.803 255.7 392.454 255.589C393.116 255.47 393.659 255.35 394.073 255.179L394.586 257.817C394.379 257.903 394.113 257.996 393.777 258.082C393.441 258.167 393.076 258.244 392.662 258.295C392.247 258.364 391.813 258.423 391.339 258.466C390.875 258.509 390.391 258.534 389.928 258.534C388.743 258.534 387.707 258.372 386.838 258.082C385.959 257.775 385.229 257.365 384.647 256.836C384.074 256.306 383.64 255.683 383.373 254.957C383.077 254.232 382.939 253.447 382.939 252.61ZM391.714 251.372C391.694 251.099 391.635 250.834 391.536 250.561C391.448 250.305 391.309 250.066 391.112 249.861C390.915 249.673 390.678 249.494 390.381 249.366C390.105 249.229 389.74 249.178 389.306 249.178C388.891 249.178 388.526 249.238 388.23 249.358C387.934 249.486 387.677 249.648 387.48 249.844C387.282 250.049 387.124 250.288 387.016 250.553C386.907 250.826 386.828 251.091 386.789 251.372H391.714Z" fill="white"/>
<path d="M406.164 249.691C405.828 249.614 405.433 249.537 404.979 249.46C404.535 249.383 404.041 249.341 403.528 249.341C403.301 249.341 403.015 249.358 402.689 249.392C402.373 249.426 402.116 249.469 401.959 249.511V258.227H398.208V247.42C398.879 247.223 399.669 247.027 400.577 246.848C401.485 246.669 402.501 246.575 403.637 246.575C403.844 246.575 404.081 246.583 404.357 246.609C404.643 246.634 404.94 246.66 405.206 246.703C405.482 246.737 405.788 246.78 406.065 246.831C406.331 246.882 406.598 246.942 406.785 247.01L406.164 249.691Z" fill="white"/>
<path d="M407.923 252.525C407.923 251.637 408.081 250.834 408.387 250.109C408.703 249.383 409.147 248.751 409.73 248.222C410.322 247.693 411.043 247.292 411.891 246.984C412.74 246.703 413.718 246.549 414.803 246.549C415.257 246.549 415.731 246.566 416.225 246.6C416.718 246.634 417.212 246.694 417.676 246.754C418.14 246.813 418.604 246.882 419.048 246.95C419.482 247.036 419.867 247.121 420.203 247.198V262.231H416.471V257.937C416.057 258.107 415.623 258.218 415.168 258.304C414.714 258.389 414.221 258.44 413.718 258.44C411.862 258.44 410.421 257.911 409.424 256.835C408.417 255.777 407.923 254.343 407.923 252.525ZM411.734 252.61C411.734 254.676 412.622 255.709 414.408 255.709C414.793 255.709 415.178 255.666 415.553 255.581C415.919 255.487 416.225 255.384 416.471 255.256V249.409C416.274 249.383 416.057 249.357 415.771 249.332C415.484 249.306 415.178 249.298 414.843 249.298C413.816 249.298 413.046 249.596 412.543 250.185C412 250.817 411.734 251.62 411.734 252.61Z" fill="white"/>
<path d="M434.954 257.842C434.323 258.004 433.504 258.15 432.497 258.286C431.48 258.431 430.444 258.491 429.338 258.491C428.223 258.491 427.285 258.355 426.545 258.107C425.814 257.842 425.212 257.484 424.778 257.014C424.343 256.536 424.038 255.981 423.85 255.333C423.653 254.675 423.574 253.967 423.574 253.181V246.83H427.315V252.797C427.315 253.839 427.482 254.59 427.788 255.051C428.104 255.512 428.706 255.751 429.575 255.751C429.832 255.751 430.128 255.742 430.424 255.717C430.72 255.691 430.996 255.666 431.233 255.64V246.839H434.964V257.842H434.954Z" fill="white"/>
<path d="M437.84 252.61C437.84 251.594 438.017 250.715 438.382 249.955C438.748 249.195 439.212 248.564 439.814 248.043C440.406 247.539 441.067 247.155 441.827 246.891C442.587 246.635 443.367 246.506 444.177 246.506C446.042 246.506 447.523 247.002 448.618 247.992C449.704 248.982 450.247 250.442 450.247 252.362C450.247 252.55 450.237 252.764 450.227 252.977C450.208 253.199 450.198 253.404 450.178 253.575H441.699C441.788 254.241 442.143 254.77 442.775 255.162C443.397 255.555 444.255 255.752 445.331 255.752C446.012 255.752 446.694 255.7 447.355 255.589C448.016 255.47 448.559 255.35 448.974 255.179L449.477 257.817C449.27 257.903 449.013 257.996 448.668 258.082C448.332 258.167 447.967 258.244 447.552 258.295C447.138 258.364 446.703 258.423 446.23 258.466C445.766 258.509 445.292 258.534 444.828 258.534C443.644 258.534 442.597 258.372 441.729 258.082C440.85 257.775 440.12 257.365 439.547 256.836C438.975 256.306 438.53 255.683 438.274 254.957C437.978 254.232 437.84 253.447 437.84 252.61ZM446.625 251.372C446.605 251.099 446.555 250.834 446.457 250.561C446.368 250.305 446.22 250.066 446.032 249.861C445.825 249.673 445.598 249.494 445.302 249.366C445.016 249.229 444.65 249.178 444.216 249.178C443.801 249.178 443.436 249.238 443.15 249.358C442.854 249.486 442.587 249.648 442.4 249.844C442.192 250.049 442.044 250.288 441.936 250.553C441.817 250.826 441.738 251.091 441.699 251.372H446.625Z" fill="white"/>
<path d="M305.831 284.263V282.027L298.675 272.303H298.606V284.246H297.224V270.033H298.576L305.762 279.858H305.831V270.033H307.213V284.246L305.831 284.263Z" fill="white"/>
<path d="M310.174 279.125C310.174 277.46 310.569 276.154 311.368 275.223C312.168 274.293 313.323 273.823 314.853 273.823C316.363 273.823 317.508 274.259 318.248 275.112C318.988 275.992 319.364 277.135 319.364 278.587L319.294 279.671H311.615C311.704 280.755 312.03 281.634 312.622 282.317C313.214 283 314.023 283.324 315.04 283.324C316.067 283.324 317.291 283.12 318.663 282.693L319.038 283.777C317.685 284.221 316.402 284.451 315.228 284.451C313.589 284.451 312.336 283.965 311.467 283.026C310.608 282.087 310.174 280.789 310.174 279.125ZM314.941 274.933C312.829 274.933 311.724 276.154 311.605 278.604H317.932C317.922 276.154 316.925 274.933 314.941 274.933Z" fill="white"/>
<path d="M331.395 273.96H332.698L331.266 284.264H328.601L327.318 279.782H327.22L325.917 284.264H323.271L321.889 273.96H323.192L324.495 283.222H324.949L326.627 278.006H327.94L329.618 283.222H330.072L331.395 273.96Z" fill="white"/>
<path d="M347.327 284.263V270.049H348.659L352.193 278.023H352.568L356.102 270.049H357.434V284.263H356.082V273.242H355.983L353.338 279.124H351.413L348.768 273.225H348.669V284.263H347.327V284.263Z" fill="white"/>
<path d="M360.343 279.125C360.343 277.46 360.738 276.154 361.537 275.223C362.337 274.293 363.492 273.823 365.022 273.823C366.532 273.823 367.677 274.259 368.417 275.112C369.157 275.992 369.532 277.135 369.532 278.587L369.454 279.671H361.784C361.873 280.755 362.199 281.634 362.791 282.317C363.383 283 364.193 283.324 365.209 283.324C366.236 283.324 367.46 283.12 368.832 282.693L369.207 283.777C367.855 284.221 366.571 284.451 365.397 284.451C363.758 284.451 362.505 283.965 361.636 283.026C360.767 282.087 360.343 280.789 360.343 279.125ZM365.11 274.933C362.998 274.933 361.893 276.154 361.774 278.604H368.101C368.091 276.154 367.094 274.933 365.11 274.933Z" fill="white"/>
<path d="M372.701 273.96H374.438L377.478 278.211L380.489 273.96H382.167L378.406 279.039L382.394 284.264H380.686L377.478 279.859L374.29 284.264H372.583L376.62 279.039L372.701 273.96Z" fill="white"/>
<path d="M386.829 275.043V273.959H391.073V283.178H393.975V284.263H386.622V283.178H389.731V275.043H386.829ZM390.284 271.876C389.988 271.876 389.731 271.791 389.524 271.611C389.316 271.432 389.218 271.193 389.218 270.92C389.218 270.638 389.316 270.399 389.524 270.246C389.731 270.075 389.988 269.998 390.284 269.998C390.59 269.998 390.836 270.075 391.024 270.237C391.212 270.399 391.31 270.621 391.31 270.911C391.31 271.193 391.202 271.441 391.024 271.62C390.836 271.782 390.59 271.876 390.284 271.876Z" fill="white"/>
<path d="M405.29 277.323V275.172C404.471 275.001 403.819 274.933 403.336 274.933C402.131 274.933 401.233 275.299 400.641 276.042C400.049 276.785 399.753 277.801 399.753 279.098C399.753 280.396 400.059 281.42 400.661 282.18C401.273 282.94 402.151 283.324 403.336 283.324C404.096 283.324 405.132 283.128 406.465 282.718L406.84 283.802C405.517 284.237 404.362 284.451 403.355 284.451C401.717 284.451 400.463 283.964 399.605 283.025C398.746 282.078 398.312 280.746 398.312 279.064C398.312 277.374 398.736 276.068 399.585 275.172C400.434 274.267 401.687 273.814 403.345 273.814C404.451 273.814 405.547 273.968 406.632 274.267V277.306H405.28V277.323H405.29Z" fill="white"/>
<path d="M410.299 279.141C410.299 275.599 411.898 273.823 415.076 273.823C418.264 273.823 419.863 275.599 419.863 279.141C419.863 282.684 418.264 284.46 415.076 284.46C411.898 284.46 410.299 282.684 410.299 279.141ZM415.096 274.959C412.855 274.959 411.74 276.359 411.74 279.15C411.74 281.941 412.855 283.333 415.096 283.333C417.346 283.333 418.462 281.933 418.462 279.15C418.452 276.35 417.336 274.959 415.096 274.959Z" fill="white"/>
</svg>
